<?xml version="1.0" encoding="utf-8" standalone="no"?>
<!DOCTYPE svg PUBLIC "-//W3C//DTD SVG 1.1//EN"
  "http://www.w3.org/Graphics/SVG/1.1/DTD/svg11.dtd">
<svg xmlns:xlink="http://www.w3.org/1999/xlink" width="460.8pt" height="345.6pt" viewBox="0 0 460.8 345.6" xmlns="http://www.w3.org/2000/svg" version="1.1">
 <metadata>
  <rdf:RDF xmlns:dc="http://purl.org/dc/elements/1.1/" xmlns:cc="http://creativecommons.org/ns#" xmlns:rdf="http://www.w3.org/1999/02/22-rdf-syntax-ns#">
   <cc:Work>
    <dc:type rdf:resource="http://purl.org/dc/dcmitype/StillImage"/>
    <dc:date>2025-02-15T17:27:25.576846</dc:date>
    <dc:format>image/svg+xml</dc:format>
    <dc:creator>
     <cc:Agent>
      <dc:title>Matplotlib v3.10.0, https://matplotlib.org/</dc:title>
     </cc:Agent>
    </dc:creator>
   </cc:Work>
  </rdf:RDF>
 </metadata>
 <defs>
  <style type="text/css">*{stroke-linejoin: round; stroke-linecap: butt}</style>
 </defs>
 <g id="figure_1">
  <g id="patch_1">
   <path d="M 0 345.6 
L 460.8 345.6 
L 460.8 0 
L 0 0 
z
" style="fill: #ffffff"/>
  </g>
  <g id="axes_1">
   <g id="patch_2">
    <path d="M 57.6 307.584 
L 414.72 307.584 
L 414.72 41.472 
L 57.6 41.472 
z
" style="fill: #ffffff"/>
   </g>
   <g id="matplotlib.axis_1">
    <g id="xtick_1">
     <g id="line2d_1">
      <defs>
       <path id="mf882d5173e" d="M 0 0 
L 0 3.5 
" style="stroke: #000000; stroke-width: 0.8"/>
      </defs>
      <g>
       <use xlink:href="#mf882d5173e" x="72.193058" y="307.584" style="stroke: #000000; stroke-width: 0.8"/>
      </g>
     </g>
     <g id="text_1">
      <!-- 0 -->
      <g transform="translate(69.011808 322.182437) scale(0.1 -0.1)">
       <defs>
        <path id="DejaVuSans-30" d="M 2034 4250 
Q 1547 4250 1301 3770 
Q 1056 3291 1056 2328 
Q 1056 1369 1301 889 
Q 1547 409 2034 409 
Q 2525 409 2770 889 
Q 3016 1369 3016 2328 
Q 3016 3291 2770 3770 
Q 2525 4250 2034 4250 
z
M 2034 4750 
Q 2819 4750 3233 4129 
Q 3647 3509 3647 2328 
Q 3647 1150 3233 529 
Q 2819 -91 2034 -91 
Q 1250 -91 836 529 
Q 422 1150 422 2328 
Q 422 3509 836 4129 
Q 1250 4750 2034 4750 
z
" transform="scale(0.015625)"/>
       </defs>
       <use xlink:href="#DejaVuSans-30"/>
      </g>
     </g>
    </g>
    <g id="xtick_2">
     <g id="line2d_2">
      <g>
       <use xlink:href="#mf882d5173e" x="137.779835" y="307.584" style="stroke: #000000; stroke-width: 0.8"/>
      </g>
     </g>
     <g id="text_2">
      <!-- 2000 -->
      <g transform="translate(125.054835 322.182437) scale(0.1 -0.1)">
       <defs>
        <path id="DejaVuSans-32" d="M 1228 531 
L 3431 531 
L 3431 0 
L 469 0 
L 469 531 
Q 828 903 1448 1529 
Q 2069 2156 2228 2338 
Q 2531 2678 2651 2914 
Q 2772 3150 2772 3378 
Q 2772 3750 2511 3984 
Q 2250 4219 1831 4219 
Q 1534 4219 1204 4116 
Q 875 4013 500 3803 
L 500 4441 
Q 881 4594 1212 4672 
Q 1544 4750 1819 4750 
Q 2544 4750 2975 4387 
Q 3406 4025 3406 3419 
Q 3406 3131 3298 2873 
Q 3191 2616 2906 2266 
Q 2828 2175 2409 1742 
Q 1991 1309 1228 531 
z
" transform="scale(0.015625)"/>
       </defs>
       <use xlink:href="#DejaVuSans-32"/>
       <use xlink:href="#DejaVuSans-30" transform="translate(63.623047 0)"/>
       <use xlink:href="#DejaVuSans-30" transform="translate(127.246094 0)"/>
       <use xlink:href="#DejaVuSans-30" transform="translate(190.869141 0)"/>
      </g>
     </g>
    </g>
    <g id="xtick_3">
     <g id="line2d_3">
      <g>
       <use xlink:href="#mf882d5173e" x="203.366612" y="307.584" style="stroke: #000000; stroke-width: 0.8"/>
      </g>
     </g>
     <g id="text_3">
      <!-- 4000 -->
      <g transform="translate(190.641612 322.182437) scale(0.1 -0.1)">
       <defs>
        <path id="DejaVuSans-34" d="M 2419 4116 
L 825 1625 
L 2419 1625 
L 2419 4116 
z
M 2253 4666 
L 3047 4666 
L 3047 1625 
L 3713 1625 
L 3713 1100 
L 3047 1100 
L 3047 0 
L 2419 0 
L 2419 1100 
L 313 1100 
L 313 1709 
L 2253 4666 
z
" transform="scale(0.015625)"/>
       </defs>
       <use xlink:href="#DejaVuSans-34"/>
       <use xlink:href="#DejaVuSans-30" transform="translate(63.623047 0)"/>
       <use xlink:href="#DejaVuSans-30" transform="translate(127.246094 0)"/>
       <use xlink:href="#DejaVuSans-30" transform="translate(190.869141 0)"/>
      </g>
     </g>
    </g>
    <g id="xtick_4">
     <g id="line2d_4">
      <g>
       <use xlink:href="#mf882d5173e" x="268.953388" y="307.584" style="stroke: #000000; stroke-width: 0.8"/>
      </g>
     </g>
     <g id="text_4">
      <!-- 6000 -->
      <g transform="translate(256.228388 322.182437) scale(0.1 -0.1)">
       <defs>
        <path id="DejaVuSans-36" d="M 2113 2584 
Q 1688 2584 1439 2293 
Q 1191 2003 1191 1497 
Q 1191 994 1439 701 
Q 1688 409 2113 409 
Q 2538 409 2786 701 
Q 3034 994 3034 1497 
Q 3034 2003 2786 2293 
Q 2538 2584 2113 2584 
z
M 3366 4563 
L 3366 3988 
Q 3128 4100 2886 4159 
Q 2644 4219 2406 4219 
Q 1781 4219 1451 3797 
Q 1122 3375 1075 2522 
Q 1259 2794 1537 2939 
Q 1816 3084 2150 3084 
Q 2853 3084 3261 2657 
Q 3669 2231 3669 1497 
Q 3669 778 3244 343 
Q 2819 -91 2113 -91 
Q 1303 -91 875 529 
Q 447 1150 447 2328 
Q 447 3434 972 4092 
Q 1497 4750 2381 4750 
Q 2619 4750 2861 4703 
Q 3103 4656 3366 4563 
z
" transform="scale(0.015625)"/>
       </defs>
       <use xlink:href="#DejaVuSans-36"/>
       <use xlink:href="#DejaVuSans-30" transform="translate(63.623047 0)"/>
       <use xlink:href="#DejaVuSans-30" transform="translate(127.246094 0)"/>
       <use xlink:href="#DejaVuSans-30" transform="translate(190.869141 0)"/>
      </g>
     </g>
    </g>
    <g id="xtick_5">
     <g id="line2d_5">
      <g>
       <use xlink:href="#mf882d5173e" x="334.540165" y="307.584" style="stroke: #000000; stroke-width: 0.8"/>
      </g>
     </g>
     <g id="text_5">
      <!-- 8000 -->
      <g transform="translate(321.815165 322.182437) scale(0.1 -0.1)">
       <defs>
        <path id="DejaVuSans-38" d="M 2034 2216 
Q 1584 2216 1326 1975 
Q 1069 1734 1069 1313 
Q 1069 891 1326 650 
Q 1584 409 2034 409 
Q 2484 409 2743 651 
Q 3003 894 3003 1313 
Q 3003 1734 2745 1975 
Q 2488 2216 2034 2216 
z
M 1403 2484 
Q 997 2584 770 2862 
Q 544 3141 544 3541 
Q 544 4100 942 4425 
Q 1341 4750 2034 4750 
Q 2731 4750 3128 4425 
Q 3525 4100 3525 3541 
Q 3525 3141 3298 2862 
Q 3072 2584 2669 2484 
Q 3125 2378 3379 2068 
Q 3634 1759 3634 1313 
Q 3634 634 3220 271 
Q 2806 -91 2034 -91 
Q 1263 -91 848 271 
Q 434 634 434 1313 
Q 434 1759 690 2068 
Q 947 2378 1403 2484 
z
M 1172 3481 
Q 1172 3119 1398 2916 
Q 1625 2713 2034 2713 
Q 2441 2713 2670 2916 
Q 2900 3119 2900 3481 
Q 2900 3844 2670 4047 
Q 2441 4250 2034 4250 
Q 1625 4250 1398 4047 
Q 1172 3844 1172 3481 
z
" transform="scale(0.015625)"/>
       </defs>
       <use xlink:href="#DejaVuSans-38"/>
       <use xlink:href="#DejaVuSans-30" transform="translate(63.623047 0)"/>
       <use xlink:href="#DejaVuSans-30" transform="translate(127.246094 0)"/>
       <use xlink:href="#DejaVuSans-30" transform="translate(190.869141 0)"/>
      </g>
     </g>
    </g>
    <g id="xtick_6">
     <g id="line2d_6">
      <g>
       <use xlink:href="#mf882d5173e" x="400.126942" y="307.584" style="stroke: #000000; stroke-width: 0.8"/>
      </g>
     </g>
     <g id="text_6">
      <!-- 10000 -->
      <g transform="translate(384.220692 322.182437) scale(0.1 -0.1)">
       <defs>
        <path id="DejaVuSans-31" d="M 794 531 
L 1825 531 
L 1825 4091 
L 703 3866 
L 703 4441 
L 1819 4666 
L 2450 4666 
L 2450 531 
L 3481 531 
L 3481 0 
L 794 0 
L 794 531 
z
" transform="scale(0.015625)"/>
       </defs>
       <use xlink:href="#DejaVuSans-31"/>
       <use xlink:href="#DejaVuSans-30" transform="translate(63.623047 0)"/>
       <use xlink:href="#DejaVuSans-30" transform="translate(127.246094 0)"/>
       <use xlink:href="#DejaVuSans-30" transform="translate(190.869141 0)"/>
       <use xlink:href="#DejaVuSans-30" transform="translate(254.492188 0)"/>
      </g>
     </g>
    </g>
    <g id="text_7">
     <!-- Signal length -->
     <g transform="translate(203.274062 335.860562) scale(0.1 -0.1)">
      <defs>
       <path id="DejaVuSans-53" d="M 3425 4513 
L 3425 3897 
Q 3066 4069 2747 4153 
Q 2428 4238 2131 4238 
Q 1616 4238 1336 4038 
Q 1056 3838 1056 3469 
Q 1056 3159 1242 3001 
Q 1428 2844 1947 2747 
L 2328 2669 
Q 3034 2534 3370 2195 
Q 3706 1856 3706 1288 
Q 3706 609 3251 259 
Q 2797 -91 1919 -91 
Q 1588 -91 1214 -16 
Q 841 59 441 206 
L 441 856 
Q 825 641 1194 531 
Q 1563 422 1919 422 
Q 2459 422 2753 634 
Q 3047 847 3047 1241 
Q 3047 1584 2836 1778 
Q 2625 1972 2144 2069 
L 1759 2144 
Q 1053 2284 737 2584 
Q 422 2884 422 3419 
Q 422 4038 858 4394 
Q 1294 4750 2059 4750 
Q 2388 4750 2728 4690 
Q 3069 4631 3425 4513 
z
" transform="scale(0.015625)"/>
       <path id="DejaVuSans-69" d="M 603 3500 
L 1178 3500 
L 1178 0 
L 603 0 
L 603 3500 
z
M 603 4863 
L 1178 4863 
L 1178 4134 
L 603 4134 
L 603 4863 
z
" transform="scale(0.015625)"/>
       <path id="DejaVuSans-67" d="M 2906 1791 
Q 2906 2416 2648 2759 
Q 2391 3103 1925 3103 
Q 1463 3103 1205 2759 
Q 947 2416 947 1791 
Q 947 1169 1205 825 
Q 1463 481 1925 481 
Q 2391 481 2648 825 
Q 2906 1169 2906 1791 
z
M 3481 434 
Q 3481 -459 3084 -895 
Q 2688 -1331 1869 -1331 
Q 1566 -1331 1297 -1286 
Q 1028 -1241 775 -1147 
L 775 -588 
Q 1028 -725 1275 -790 
Q 1522 -856 1778 -856 
Q 2344 -856 2625 -561 
Q 2906 -266 2906 331 
L 2906 616 
Q 2728 306 2450 153 
Q 2172 0 1784 0 
Q 1141 0 747 490 
Q 353 981 353 1791 
Q 353 2603 747 3093 
Q 1141 3584 1784 3584 
Q 2172 3584 2450 3431 
Q 2728 3278 2906 2969 
L 2906 3500 
L 3481 3500 
L 3481 434 
z
" transform="scale(0.015625)"/>
       <path id="DejaVuSans-6e" d="M 3513 2113 
L 3513 0 
L 2938 0 
L 2938 2094 
Q 2938 2591 2744 2837 
Q 2550 3084 2163 3084 
Q 1697 3084 1428 2787 
Q 1159 2491 1159 1978 
L 1159 0 
L 581 0 
L 581 3500 
L 1159 3500 
L 1159 2956 
Q 1366 3272 1645 3428 
Q 1925 3584 2291 3584 
Q 2894 3584 3203 3211 
Q 3513 2838 3513 2113 
z
" transform="scale(0.015625)"/>
       <path id="DejaVuSans-61" d="M 2194 1759 
Q 1497 1759 1228 1600 
Q 959 1441 959 1056 
Q 959 750 1161 570 
Q 1363 391 1709 391 
Q 2188 391 2477 730 
Q 2766 1069 2766 1631 
L 2766 1759 
L 2194 1759 
z
M 3341 1997 
L 3341 0 
L 2766 0 
L 2766 531 
Q 2569 213 2275 61 
Q 1981 -91 1556 -91 
Q 1019 -91 701 211 
Q 384 513 384 1019 
Q 384 1609 779 1909 
Q 1175 2209 1959 2209 
L 2766 2209 
L 2766 2266 
Q 2766 2663 2505 2880 
Q 2244 3097 1772 3097 
Q 1472 3097 1187 3025 
Q 903 2953 641 2809 
L 641 3341 
Q 956 3463 1253 3523 
Q 1550 3584 1831 3584 
Q 2591 3584 2966 3190 
Q 3341 2797 3341 1997 
z
" transform="scale(0.015625)"/>
       <path id="DejaVuSans-6c" d="M 603 4863 
L 1178 4863 
L 1178 0 
L 603 0 
L 603 4863 
z
" transform="scale(0.015625)"/>
       <path id="DejaVuSans-20" transform="scale(0.015625)"/>
       <path id="DejaVuSans-65" d="M 3597 1894 
L 3597 1613 
L 953 1613 
Q 991 1019 1311 708 
Q 1631 397 2203 397 
Q 2534 397 2845 478 
Q 3156 559 3463 722 
L 3463 178 
Q 3153 47 2828 -22 
Q 2503 -91 2169 -91 
Q 1331 -91 842 396 
Q 353 884 353 1716 
Q 353 2575 817 3079 
Q 1281 3584 2069 3584 
Q 2775 3584 3186 3129 
Q 3597 2675 3597 1894 
z
M 3022 2063 
Q 3016 2534 2758 2815 
Q 2500 3097 2075 3097 
Q 1594 3097 1305 2825 
Q 1016 2553 972 2059 
L 3022 2063 
z
" transform="scale(0.015625)"/>
       <path id="DejaVuSans-74" d="M 1172 4494 
L 1172 3500 
L 2356 3500 
L 2356 3053 
L 1172 3053 
L 1172 1153 
Q 1172 725 1289 603 
Q 1406 481 1766 481 
L 2356 481 
L 2356 0 
L 1766 0 
Q 1100 0 847 248 
Q 594 497 594 1153 
L 594 3053 
L 172 3053 
L 172 3500 
L 594 3500 
L 594 4494 
L 1172 4494 
z
" transform="scale(0.015625)"/>
       <path id="DejaVuSans-68" d="M 3513 2113 
L 3513 0 
L 2938 0 
L 2938 2094 
Q 2938 2591 2744 2837 
Q 2550 3084 2163 3084 
Q 1697 3084 1428 2787 
Q 1159 2491 1159 1978 
L 1159 0 
L 581 0 
L 581 4863 
L 1159 4863 
L 1159 2956 
Q 1366 3272 1645 3428 
Q 1925 3584 2291 3584 
Q 2894 3584 3203 3211 
Q 3513 2838 3513 2113 
z
" transform="scale(0.015625)"/>
      </defs>
      <use xlink:href="#DejaVuSans-53"/>
      <use xlink:href="#DejaVuSans-69" transform="translate(63.476562 0)"/>
      <use xlink:href="#DejaVuSans-67" transform="translate(91.259766 0)"/>
      <use xlink:href="#DejaVuSans-6e" transform="translate(154.736328 0)"/>
      <use xlink:href="#DejaVuSans-61" transform="translate(218.115234 0)"/>
      <use xlink:href="#DejaVuSans-6c" transform="translate(279.394531 0)"/>
      <use xlink:href="#DejaVuSans-20" transform="translate(307.177734 0)"/>
      <use xlink:href="#DejaVuSans-6c" transform="translate(338.964844 0)"/>
      <use xlink:href="#DejaVuSans-65" transform="translate(366.748047 0)"/>
      <use xlink:href="#DejaVuSans-6e" transform="translate(428.271484 0)"/>
      <use xlink:href="#DejaVuSans-67" transform="translate(491.650391 0)"/>
      <use xlink:href="#DejaVuSans-74" transform="translate(555.126953 0)"/>
      <use xlink:href="#DejaVuSans-68" transform="translate(594.335938 0)"/>
     </g>
    </g>
   </g>
   <g id="matplotlib.axis_2">
    <g id="ytick_1">
     <g id="line2d_7">
      <defs>
       <path id="m01c67b43cb" d="M 0 0 
L -3.5 0 
" style="stroke: #000000; stroke-width: 0.8"/>
      </defs>
      <g>
       <use xlink:href="#m01c67b43cb" x="57.6" y="293.859266" style="stroke: #000000; stroke-width: 0.8"/>
      </g>
     </g>
     <g id="text_8">
      <!-- 0 -->
      <g transform="translate(44.2375 297.658485) scale(0.1 -0.1)">
       <use xlink:href="#DejaVuSans-30"/>
      </g>
     </g>
    </g>
    <g id="ytick_2">
     <g id="line2d_8">
      <g>
       <use xlink:href="#m01c67b43cb" x="57.6" y="240.94523" style="stroke: #000000; stroke-width: 0.8"/>
      </g>
     </g>
     <g id="text_9">
      <!-- 2 -->
      <g transform="translate(44.2375 244.744448) scale(0.1 -0.1)">
       <use xlink:href="#DejaVuSans-32"/>
      </g>
     </g>
    </g>
    <g id="ytick_3">
     <g id="line2d_9">
      <g>
       <use xlink:href="#m01c67b43cb" x="57.6" y="188.031193" style="stroke: #000000; stroke-width: 0.8"/>
      </g>
     </g>
     <g id="text_10">
      <!-- 4 -->
      <g transform="translate(44.2375 191.830412) scale(0.1 -0.1)">
       <use xlink:href="#DejaVuSans-34"/>
      </g>
     </g>
    </g>
    <g id="ytick_4">
     <g id="line2d_10">
      <g>
       <use xlink:href="#m01c67b43cb" x="57.6" y="135.117157" style="stroke: #000000; stroke-width: 0.8"/>
      </g>
     </g>
     <g id="text_11">
      <!-- 6 -->
      <g transform="translate(44.2375 138.916376) scale(0.1 -0.1)">
       <use xlink:href="#DejaVuSans-36"/>
      </g>
     </g>
    </g>
    <g id="ytick_5">
     <g id="line2d_11">
      <g>
       <use xlink:href="#m01c67b43cb" x="57.6" y="82.203121" style="stroke: #000000; stroke-width: 0.8"/>
      </g>
     </g>
     <g id="text_12">
      <!-- 8 -->
      <g transform="translate(44.2375 86.00234) scale(0.1 -0.1)">
       <use xlink:href="#DejaVuSans-38"/>
      </g>
     </g>
    </g>
    <g id="text_13">
     <!-- Entropy -->
     <g transform="translate(38.157812 193.952219) rotate(-90) scale(0.1 -0.1)">
      <defs>
       <path id="DejaVuSans-45" d="M 628 4666 
L 3578 4666 
L 3578 4134 
L 1259 4134 
L 1259 2753 
L 3481 2753 
L 3481 2222 
L 1259 2222 
L 1259 531 
L 3634 531 
L 3634 0 
L 628 0 
L 628 4666 
z
" transform="scale(0.015625)"/>
       <path id="DejaVuSans-72" d="M 2631 2963 
Q 2534 3019 2420 3045 
Q 2306 3072 2169 3072 
Q 1681 3072 1420 2755 
Q 1159 2438 1159 1844 
L 1159 0 
L 581 0 
L 581 3500 
L 1159 3500 
L 1159 2956 
Q 1341 3275 1631 3429 
Q 1922 3584 2338 3584 
Q 2397 3584 2469 3576 
Q 2541 3569 2628 3553 
L 2631 2963 
z
" transform="scale(0.015625)"/>
       <path id="DejaVuSans-6f" d="M 1959 3097 
Q 1497 3097 1228 2736 
Q 959 2375 959 1747 
Q 959 1119 1226 758 
Q 1494 397 1959 397 
Q 2419 397 2687 759 
Q 2956 1122 2956 1747 
Q 2956 2369 2687 2733 
Q 2419 3097 1959 3097 
z
M 1959 3584 
Q 2709 3584 3137 3096 
Q 3566 2609 3566 1747 
Q 3566 888 3137 398 
Q 2709 -91 1959 -91 
Q 1206 -91 779 398 
Q 353 888 353 1747 
Q 353 2609 779 3096 
Q 1206 3584 1959 3584 
z
" transform="scale(0.015625)"/>
       <path id="DejaVuSans-70" d="M 1159 525 
L 1159 -1331 
L 581 -1331 
L 581 3500 
L 1159 3500 
L 1159 2969 
Q 1341 3281 1617 3432 
Q 1894 3584 2278 3584 
Q 2916 3584 3314 3078 
Q 3713 2572 3713 1747 
Q 3713 922 3314 415 
Q 2916 -91 2278 -91 
Q 1894 -91 1617 61 
Q 1341 213 1159 525 
z
M 3116 1747 
Q 3116 2381 2855 2742 
Q 2594 3103 2138 3103 
Q 1681 3103 1420 2742 
Q 1159 2381 1159 1747 
Q 1159 1113 1420 752 
Q 1681 391 2138 391 
Q 2594 391 2855 752 
Q 3116 1113 3116 1747 
z
" transform="scale(0.015625)"/>
       <path id="DejaVuSans-79" d="M 2059 -325 
Q 1816 -950 1584 -1140 
Q 1353 -1331 966 -1331 
L 506 -1331 
L 506 -850 
L 844 -850 
Q 1081 -850 1212 -737 
Q 1344 -625 1503 -206 
L 1606 56 
L 191 3500 
L 800 3500 
L 1894 763 
L 2988 3500 
L 3597 3500 
L 2059 -325 
z
" transform="scale(0.015625)"/>
      </defs>
      <use xlink:href="#DejaVuSans-45"/>
      <use xlink:href="#DejaVuSans-6e" transform="translate(63.183594 0)"/>
      <use xlink:href="#DejaVuSans-74" transform="translate(126.5625 0)"/>
      <use xlink:href="#DejaVuSans-72" transform="translate(165.771484 0)"/>
      <use xlink:href="#DejaVuSans-6f" transform="translate(204.634766 0)"/>
      <use xlink:href="#DejaVuSans-70" transform="translate(265.816406 0)"/>
      <use xlink:href="#DejaVuSans-79" transform="translate(329.292969 0)"/>
     </g>
    </g>
   </g>
   <g id="line2d_12">
    <path d="M 73.832727 195.609222 
L 77.112066 165.467298 
L 80.391405 151.737179 
L 83.670744 142.215497 
L 86.950083 134.810737 
L 90.229421 129.024775 
L 93.50876 124.333988 
L 96.788099 120.349976 
L 100.067438 117.06201 
L 103.346777 113.942877 
L 106.626116 111.306634 
L 109.905455 108.877253 
L 113.184793 106.611596 
L 116.464132 104.562367 
L 119.743471 102.660515 
L 123.02281 100.98652 
L 126.302149 99.37631 
L 129.581488 97.75308 
L 132.860826 96.35165 
L 136.140165 94.8802 
L 139.419504 93.558007 
L 142.698843 92.264494 
L 145.978182 91.047625 
L 149.257521 89.984188 
L 152.53686 88.865745 
L 155.816198 87.83597 
L 159.095537 86.80308 
L 162.374876 85.782238 
L 165.654215 84.812188 
L 168.933554 83.91079 
L 172.212893 83.005862 
L 175.492231 82.119173 
L 178.77157 81.353238 
L 182.050909 80.556517 
L 185.330248 79.789723 
L 188.609587 79.05488 
L 191.888926 78.321568 
L 195.168264 77.704061 
L 198.447603 77.008629 
L 201.726942 76.405462 
L 205.006281 75.721344 
L 208.28562 75.118626 
L 211.564959 74.497936 
L 214.844298 73.860863 
L 218.123636 73.26665 
L 221.402975 72.805408 
L 224.682314 72.199557 
L 227.961653 71.800268 
L 231.240992 71.26422 
L 234.520331 70.692451 
L 237.799669 70.179144 
L 241.079008 69.672904 
L 244.358347 69.15781 
L 247.637686 68.686887 
L 250.917025 68.194662 
L 254.196364 67.845158 
L 257.475702 67.363848 
L 260.755041 66.897844 
L 264.03438 66.465023 
L 267.313719 66.114276 
L 270.593058 65.736002 
L 273.872397 65.309539 
L 277.151736 64.925878 
L 280.431074 64.542714 
L 283.710413 64.10642 
L 286.989752 63.697499 
L 290.269091 63.278234 
L 293.54843 62.876379 
L 296.827769 62.492573 
L 300.107107 62.112958 
L 303.386446 61.747594 
L 306.665785 61.42891 
L 309.945124 61.091379 
L 313.224463 60.724319 
L 316.503802 60.376106 
L 319.78314 60.074044 
L 323.062479 59.75709 
L 326.341818 59.411555 
L 329.621157 59.080645 
L 332.900496 58.794122 
L 336.179835 58.495294 
L 339.459174 58.196415 
L 342.738512 57.905628 
L 346.017851 57.657305 
L 349.29719 57.335509 
L 352.576529 57.037998 
L 355.855868 56.769255 
L 359.135207 56.514772 
L 362.414545 56.288546 
L 365.693884 56.035916 
L 368.973223 55.820257 
L 372.252562 55.534344 
L 375.531901 55.296926 
L 378.81124 54.995459 
L 382.090579 54.745458 
L 385.369917 54.476344 
L 388.649256 54.208311 
L 391.928595 54.049935 
L 395.207934 53.799635 
L 398.487273 53.568 
" clip-path="url(#p9e4f424589)" style="fill: none; stroke: #1f77b4; stroke-width: 1.5; stroke-linecap: square"/>
   </g>
   <g id="line2d_13">
    <path d="M 73.832727 251.189814 
L 77.112066 239.479506 
L 80.391405 234.274073 
L 83.670744 229.647567 
L 86.950083 226.115452 
L 90.229421 223.387802 
L 93.50876 221.201718 
L 96.788099 219.359624 
L 100.067438 217.866091 
L 103.346777 216.435349 
L 106.626116 215.26028 
L 109.905455 214.17616 
L 113.184793 213.151971 
L 116.464132 212.242292 
L 119.743471 211.399327 
L 123.02281 210.788875 
L 126.302149 210.068442 
L 129.581488 209.3313 
L 132.860826 208.750391 
L 136.140165 208.080297 
L 139.419504 207.487214 
L 142.698843 206.903824 
L 145.978182 206.357745 
L 149.257521 205.898531 
L 152.53686 205.39729 
L 155.816198 204.941472 
L 159.095537 204.47945 
L 162.374876 204.020033 
L 165.654215 203.585474 
L 168.933554 203.195104 
L 172.212893 202.790073 
L 175.492231 202.392093 
L 178.77157 202.071972 
L 182.050909 201.722817 
L 185.330248 201.383959 
L 188.609587 201.060707 
L 191.888926 200.752027 
L 195.168264 200.562285 
L 198.447603 200.255593 
L 201.726942 200.00916 
L 205.006281 199.701451 
L 208.28562 199.451414 
L 211.564959 199.182369 
L 214.844298 198.895813 
L 218.123636 198.634709 
L 221.402975 198.643509 
L 224.682314 198.366438 
L 227.961653 198.344287 
L 231.240992 198.120099 
L 234.520331 197.856215 
L 237.799669 197.625615 
L 241.079008 197.395704 
L 244.358347 197.162746 
L 247.637686 196.952939 
L 250.917025 196.728693 
L 254.196364 196.629763 
L 257.475702 196.422318 
L 260.755041 196.21171 
L 264.03438 196.018334 
L 267.313719 196.053842 
L 270.593058 195.897947 
L 273.872397 195.703368 
L 277.151736 195.536611 
L 280.431074 195.390269 
L 283.710413 195.189238 
L 286.989752 195.000378 
L 290.269091 194.805884 
L 293.54843 194.620261 
L 296.827769 194.468445 
L 300.107107 194.299223 
L 303.386446 194.143355 
L 306.665785 194.019036 
L 309.945124 193.866834 
L 313.224463 193.701003 
L 316.503802 193.550364 
L 319.78314 193.432018 
L 323.062479 193.317157 
L 326.341818 193.164024 
L 329.621157 193.02985 
L 332.900496 192.92103 
L 336.179835 192.815349 
L 339.459174 192.684977 
L 342.738512 192.608418 
L 346.017851 192.52275 
L 349.29719 192.377745 
L 352.576529 192.24764 
L 355.855868 192.136225 
L 359.135207 192.036413 
L 362.414545 191.989484 
L 365.693884 191.919043 
L 368.973223 191.856513 
L 372.252562 191.724015 
L 375.531901 191.659933 
L 378.81124 191.518069 
L 382.090579 191.448949 
L 385.369917 191.326827 
L 388.649256 191.20599 
L 391.928595 191.4626 
L 395.207934 191.342301 
L 398.487273 191.244363 
" clip-path="url(#p9e4f424589)" style="fill: none; stroke: #ff7f0e; stroke-width: 1.5; stroke-linecap: square"/>
   </g>
   <g id="line2d_14">
    <path d="M 73.832727 289.656778 
L 77.112066 279.340258 
L 80.391405 275.411318 
L 83.670744 272.310069 
L 86.950083 269.904357 
L 90.229421 268.098154 
L 93.50876 265.83331 
L 96.788099 264.320169 
L 100.067438 263.257161 
L 103.346777 262.380334 
L 106.626116 261.624154 
L 109.905455 261.003082 
L 113.184793 260.545957 
L 116.464132 260.012364 
L 119.743471 259.549902 
L 123.02281 259.37635 
L 126.302149 259.190424 
L 129.581488 258.811249 
L 132.860826 258.597188 
L 136.140165 258.298107 
L 139.419504 258.110368 
L 142.698843 257.573431 
L 145.978182 257.406485 
L 149.257521 257.260967 
L 152.53686 257.083821 
L 155.816198 257.003404 
L 159.095537 256.850392 
L 162.374876 256.752099 
L 165.654215 256.728572 
L 168.933554 256.624474 
L 172.212893 256.657016 
L 175.492231 256.62566 
L 178.77157 256.636341 
L 182.050909 256.444343 
L 185.330248 256.425776 
L 188.609587 256.321783 
L 191.888926 256.277065 
L 195.168264 256.225 
L 198.447603 256.110718 
L 201.726942 256.142965 
L 205.006281 256.125997 
L 208.28562 256.102072 
L 211.564959 255.956152 
L 214.844298 255.778828 
L 218.123636 255.684118 
L 221.402975 255.682761 
L 224.682314 255.556081 
L 227.961653 255.548694 
L 231.240992 255.507396 
L 234.520331 255.472393 
L 237.799669 255.466304 
L 241.079008 255.347047 
L 244.358347 255.255753 
L 247.637686 255.270048 
L 250.917025 255.242419 
L 254.196364 255.329026 
L 257.475702 255.308936 
L 260.755041 255.285246 
L 264.03438 255.252303 
L 267.313719 255.278756 
L 270.593058 255.258855 
L 273.872397 255.244431 
L 277.151736 255.247068 
L 280.431074 255.191609 
L 283.710413 255.183924 
L 286.989752 255.118709 
L 290.269091 255.054995 
L 293.54843 254.9952 
L 296.827769 254.936103 
L 300.107107 254.923022 
L 303.386446 254.885185 
L 306.665785 254.883389 
L 309.945124 254.862396 
L 313.224463 254.852681 
L 316.503802 254.850194 
L 319.78314 254.820454 
L 323.062479 254.801373 
L 326.341818 254.778939 
L 329.621157 254.762524 
L 332.900496 254.754616 
L 336.179835 254.736195 
L 339.459174 254.706223 
L 342.738512 254.676931 
L 346.017851 254.703529 
L 349.29719 254.693939 
L 352.576529 254.672823 
L 355.855868 254.697853 
L 359.135207 254.688454 
L 362.414545 254.713647 
L 365.693884 254.716961 
L 368.973223 254.736865 
L 372.252562 254.701883 
L 375.531901 254.673796 
L 378.81124 254.667588 
L 382.090579 254.6758 
L 385.369917 254.621009 
L 388.649256 254.594001 
L 391.928595 254.592687 
L 395.207934 254.582842 
L 398.487273 254.586063 
" clip-path="url(#p9e4f424589)" style="fill: none; stroke: #2ca02c; stroke-width: 1.5; stroke-linecap: square"/>
   </g>
   <g id="line2d_15">
    <path d="M 73.832727 295.488 
L 77.112066 293.023505 
L 80.391405 292.727497 
L 83.670744 292.277763 
L 86.950083 291.435919 
L 90.229421 290.981617 
L 93.50876 290.522588 
L 96.788099 290.038858 
L 100.067438 289.83045 
L 103.346777 289.550008 
L 106.626116 289.369039 
L 109.905455 289.339931 
L 113.184793 289.214955 
L 116.464132 289.029081 
L 119.743471 288.975426 
L 123.02281 288.995387 
L 126.302149 288.942408 
L 129.581488 288.847247 
L 132.860826 288.872892 
L 136.140165 288.632303 
L 139.419504 288.505242 
L 142.698843 288.313705 
L 145.978182 288.184213 
L 149.257521 288.140707 
L 152.53686 288.070758 
L 155.816198 288.040527 
L 159.095537 287.941048 
L 162.374876 287.830447 
L 165.654215 287.76472 
L 168.933554 287.721027 
L 172.212893 287.694428 
L 175.492231 287.640973 
L 178.77157 287.662554 
L 182.050909 287.584917 
L 185.330248 287.54688 
L 188.609587 287.519729 
L 191.888926 287.512769 
L 195.168264 287.619037 
L 198.447603 287.5893 
L 201.726942 287.6157 
L 205.006281 287.616338 
L 208.28562 287.579691 
L 211.564959 287.544244 
L 214.844298 287.498292 
L 218.123636 287.460551 
L 221.402975 287.509626 
L 224.682314 287.482641 
L 227.961653 287.561891 
L 231.240992 287.558568 
L 234.520331 287.543213 
L 237.799669 287.542238 
L 241.079008 287.516642 
L 244.358347 287.503854 
L 247.637686 287.505489 
L 250.917025 287.485291 
L 254.196364 287.52639 
L 257.475702 287.527881 
L 260.755041 287.505861 
L 264.03438 287.481504 
L 267.313719 287.554375 
L 270.593058 287.553933 
L 273.872397 287.558056 
L 277.151736 287.575095 
L 280.431074 287.571504 
L 283.710413 287.558157 
L 286.989752 287.527525 
L 290.269091 287.489886 
L 293.54843 287.476161 
L 296.827769 287.486248 
L 300.107107 287.470021 
L 303.386446 287.440428 
L 306.665785 287.446649 
L 309.945124 287.427784 
L 313.224463 287.415222 
L 316.503802 287.415824 
L 319.78314 287.41662 
L 323.062479 287.413675 
L 326.341818 287.368347 
L 329.621157 287.381721 
L 332.900496 287.378594 
L 336.179835 287.399162 
L 339.459174 287.40559 
L 342.738512 287.41222 
L 346.017851 287.442913 
L 349.29719 287.441228 
L 352.576529 287.447096 
L 355.855868 287.45298 
L 359.135207 287.450934 
L 362.414545 287.480028 
L 365.693884 287.495908 
L 368.973223 287.515157 
L 372.252562 287.505603 
L 375.531901 287.508288 
L 378.81124 287.499109 
L 382.090579 287.515416 
L 385.369917 287.493868 
L 388.649256 287.493321 
L 391.928595 287.541955 
L 395.207934 287.546153 
L 398.487273 287.551099 
" clip-path="url(#p9e4f424589)" style="fill: none; stroke: #d62728; stroke-width: 1.5; stroke-linecap: square"/>
   </g>
   <g id="line2d_16">
    <path d="M 73.832727 265.512861 
L 77.112066 273.730131 
L 80.391405 273.981317 
L 83.670744 275.329384 
L 86.950083 273.246532 
L 90.229421 273.621425 
L 93.50876 273.01725 
L 96.788099 272.470192 
L 100.067438 270.526568 
L 103.346777 270.01442 
L 106.626116 270.144764 
L 109.905455 269.642117 
L 113.184793 269.669296 
L 116.464132 269.790135 
L 119.743471 269.725687 
L 123.02281 270.107978 
L 126.302149 269.820388 
L 129.581488 269.71335 
L 132.860826 269.968056 
L 136.140165 269.919979 
L 139.419504 269.792749 
L 142.698843 269.697454 
L 145.978182 269.323087 
L 149.257521 269.457691 
L 152.53686 269.088518 
L 155.816198 269.277543 
L 159.095537 269.206339 
L 162.374876 268.926361 
L 165.654215 268.812223 
L 168.933554 268.769565 
L 172.212893 268.635358 
L 175.492231 268.438121 
L 178.77157 268.497528 
L 182.050909 268.441601 
L 185.330248 268.649972 
L 188.609587 268.659926 
L 191.888926 268.842966 
L 195.168264 269.035358 
L 198.447603 268.991478 
L 201.726942 268.933096 
L 205.006281 268.937236 
L 208.28562 269.061906 
L 211.564959 269.054559 
L 214.844298 269.078515 
L 218.123636 269.059276 
L 221.402975 269.053233 
L 224.682314 269.099636 
L 227.961653 268.994772 
L 231.240992 269.069869 
L 234.520331 269.144104 
L 237.799669 269.107504 
L 241.079008 268.906105 
L 244.358347 268.874455 
L 247.637686 268.955712 
L 250.917025 268.926651 
L 254.196364 268.935213 
L 257.475702 268.790078 
L 260.755041 268.716314 
L 264.03438 268.76694 
L 267.313719 268.730144 
L 270.593058 268.838511 
L 273.872397 268.704977 
L 277.151736 268.724409 
L 280.431074 268.717971 
L 283.710413 268.664402 
L 286.989752 268.619755 
L 290.269091 268.654703 
L 293.54843 268.742343 
L 296.827769 268.751841 
L 300.107107 268.661716 
L 303.386446 268.793175 
L 306.665785 268.777893 
L 309.945124 268.724786 
L 313.224463 268.657661 
L 316.503802 268.699067 
L 319.78314 268.680742 
L 323.062479 268.799692 
L 326.341818 268.743662 
L 329.621157 268.839809 
L 332.900496 268.82823 
L 336.179835 268.877963 
L 339.459174 268.936856 
L 342.738512 268.96778 
L 346.017851 269.010574 
L 349.29719 269.065444 
L 352.576529 269.099939 
L 355.855868 269.065439 
L 359.135207 269.013391 
L 362.414545 269.005364 
L 365.693884 268.973612 
L 368.973223 268.971092 
L 372.252562 268.942036 
L 375.531901 268.887602 
L 378.81124 268.89817 
L 382.090579 268.927317 
L 385.369917 268.940039 
L 388.649256 268.944595 
L 391.928595 268.962026 
L 395.207934 268.961128 
L 398.487273 269.012221 
" clip-path="url(#p9e4f424589)" style="fill: none; stroke: #9467bd; stroke-width: 1.5; stroke-linecap: square"/>
   </g>
   <g id="patch_3">
    <path d="M 57.6 307.584 
L 57.6 41.472 
" style="fill: none; stroke: #000000; stroke-width: 0.8; stroke-linejoin: miter; stroke-linecap: square"/>
   </g>
   <g id="patch_4">
    <path d="M 414.72 307.584 
L 414.72 41.472 
" style="fill: none; stroke: #000000; stroke-width: 0.8; stroke-linejoin: miter; stroke-linecap: square"/>
   </g>
   <g id="patch_5">
    <path d="M 57.6 307.584 
L 414.72 307.584 
" style="fill: none; stroke: #000000; stroke-width: 0.8; stroke-linejoin: miter; stroke-linecap: square"/>
   </g>
   <g id="patch_6">
    <path d="M 57.6 41.472 
L 414.72 41.472 
" style="fill: none; stroke: #000000; stroke-width: 0.8; stroke-linejoin: miter; stroke-linecap: square"/>
   </g>
   <g id="text_14">
    <!-- Entropy for various signal length (zoomed) -->
    <g transform="translate(107.714063 35.472) scale(0.12 -0.12)">
     <defs>
      <path id="DejaVuSans-66" d="M 2375 4863 
L 2375 4384 
L 1825 4384 
Q 1516 4384 1395 4259 
Q 1275 4134 1275 3809 
L 1275 3500 
L 2222 3500 
L 2222 3053 
L 1275 3053 
L 1275 0 
L 697 0 
L 697 3053 
L 147 3053 
L 147 3500 
L 697 3500 
L 697 3744 
Q 697 4328 969 4595 
Q 1241 4863 1831 4863 
L 2375 4863 
z
" transform="scale(0.015625)"/>
      <path id="DejaVuSans-76" d="M 191 3500 
L 800 3500 
L 1894 563 
L 2988 3500 
L 3597 3500 
L 2284 0 
L 1503 0 
L 191 3500 
z
" transform="scale(0.015625)"/>
      <path id="DejaVuSans-75" d="M 544 1381 
L 544 3500 
L 1119 3500 
L 1119 1403 
Q 1119 906 1312 657 
Q 1506 409 1894 409 
Q 2359 409 2629 706 
Q 2900 1003 2900 1516 
L 2900 3500 
L 3475 3500 
L 3475 0 
L 2900 0 
L 2900 538 
Q 2691 219 2414 64 
Q 2138 -91 1772 -91 
Q 1169 -91 856 284 
Q 544 659 544 1381 
z
M 1991 3584 
L 1991 3584 
z
" transform="scale(0.015625)"/>
      <path id="DejaVuSans-73" d="M 2834 3397 
L 2834 2853 
Q 2591 2978 2328 3040 
Q 2066 3103 1784 3103 
Q 1356 3103 1142 2972 
Q 928 2841 928 2578 
Q 928 2378 1081 2264 
Q 1234 2150 1697 2047 
L 1894 2003 
Q 2506 1872 2764 1633 
Q 3022 1394 3022 966 
Q 3022 478 2636 193 
Q 2250 -91 1575 -91 
Q 1294 -91 989 -36 
Q 684 19 347 128 
L 347 722 
Q 666 556 975 473 
Q 1284 391 1588 391 
Q 1994 391 2212 530 
Q 2431 669 2431 922 
Q 2431 1156 2273 1281 
Q 2116 1406 1581 1522 
L 1381 1569 
Q 847 1681 609 1914 
Q 372 2147 372 2553 
Q 372 3047 722 3315 
Q 1072 3584 1716 3584 
Q 2034 3584 2315 3537 
Q 2597 3491 2834 3397 
z
" transform="scale(0.015625)"/>
      <path id="DejaVuSans-28" d="M 1984 4856 
Q 1566 4138 1362 3434 
Q 1159 2731 1159 2009 
Q 1159 1288 1364 580 
Q 1569 -128 1984 -844 
L 1484 -844 
Q 1016 -109 783 600 
Q 550 1309 550 2009 
Q 550 2706 781 3412 
Q 1013 4119 1484 4856 
L 1984 4856 
z
" transform="scale(0.015625)"/>
      <path id="DejaVuSans-7a" d="M 353 3500 
L 3084 3500 
L 3084 2975 
L 922 459 
L 3084 459 
L 3084 0 
L 275 0 
L 275 525 
L 2438 3041 
L 353 3041 
L 353 3500 
z
" transform="scale(0.015625)"/>
      <path id="DejaVuSans-6d" d="M 3328 2828 
Q 3544 3216 3844 3400 
Q 4144 3584 4550 3584 
Q 5097 3584 5394 3201 
Q 5691 2819 5691 2113 
L 5691 0 
L 5113 0 
L 5113 2094 
Q 5113 2597 4934 2840 
Q 4756 3084 4391 3084 
Q 3944 3084 3684 2787 
Q 3425 2491 3425 1978 
L 3425 0 
L 2847 0 
L 2847 2094 
Q 2847 2600 2669 2842 
Q 2491 3084 2119 3084 
Q 1678 3084 1418 2786 
Q 1159 2488 1159 1978 
L 1159 0 
L 581 0 
L 581 3500 
L 1159 3500 
L 1159 2956 
Q 1356 3278 1631 3431 
Q 1906 3584 2284 3584 
Q 2666 3584 2933 3390 
Q 3200 3197 3328 2828 
z
" transform="scale(0.015625)"/>
      <path id="DejaVuSans-64" d="M 2906 2969 
L 2906 4863 
L 3481 4863 
L 3481 0 
L 2906 0 
L 2906 525 
Q 2725 213 2448 61 
Q 2172 -91 1784 -91 
Q 1150 -91 751 415 
Q 353 922 353 1747 
Q 353 2572 751 3078 
Q 1150 3584 1784 3584 
Q 2172 3584 2448 3432 
Q 2725 3281 2906 2969 
z
M 947 1747 
Q 947 1113 1208 752 
Q 1469 391 1925 391 
Q 2381 391 2643 752 
Q 2906 1113 2906 1747 
Q 2906 2381 2643 2742 
Q 2381 3103 1925 3103 
Q 1469 3103 1208 2742 
Q 947 2381 947 1747 
z
" transform="scale(0.015625)"/>
      <path id="DejaVuSans-29" d="M 513 4856 
L 1013 4856 
Q 1481 4119 1714 3412 
Q 1947 2706 1947 2009 
Q 1947 1309 1714 600 
Q 1481 -109 1013 -844 
L 513 -844 
Q 928 -128 1133 580 
Q 1338 1288 1338 2009 
Q 1338 2731 1133 3434 
Q 928 4138 513 4856 
z
" transform="scale(0.015625)"/>
     </defs>
     <use xlink:href="#DejaVuSans-45"/>
     <use xlink:href="#DejaVuSans-6e" transform="translate(63.183594 0)"/>
     <use xlink:href="#DejaVuSans-74" transform="translate(126.5625 0)"/>
     <use xlink:href="#DejaVuSans-72" transform="translate(165.771484 0)"/>
     <use xlink:href="#DejaVuSans-6f" transform="translate(204.634766 0)"/>
     <use xlink:href="#DejaVuSans-70" transform="translate(265.816406 0)"/>
     <use xlink:href="#DejaVuSans-79" transform="translate(329.292969 0)"/>
     <use xlink:href="#DejaVuSans-20" transform="translate(388.472656 0)"/>
     <use xlink:href="#DejaVuSans-66" transform="translate(420.259766 0)"/>
     <use xlink:href="#DejaVuSans-6f" transform="translate(455.464844 0)"/>
     <use xlink:href="#DejaVuSans-72" transform="translate(516.646484 0)"/>
     <use xlink:href="#DejaVuSans-20" transform="translate(557.759766 0)"/>
     <use xlink:href="#DejaVuSans-76" transform="translate(589.546875 0)"/>
     <use xlink:href="#DejaVuSans-61" transform="translate(648.726562 0)"/>
     <use xlink:href="#DejaVuSans-72" transform="translate(710.005859 0)"/>
     <use xlink:href="#DejaVuSans-69" transform="translate(751.119141 0)"/>
     <use xlink:href="#DejaVuSans-6f" transform="translate(778.902344 0)"/>
     <use xlink:href="#DejaVuSans-75" transform="translate(840.083984 0)"/>
     <use xlink:href="#DejaVuSans-73" transform="translate(903.462891 0)"/>
     <use xlink:href="#DejaVuSans-20" transform="translate(955.5625 0)"/>
     <use xlink:href="#DejaVuSans-73" transform="translate(987.349609 0)"/>
     <use xlink:href="#DejaVuSans-69" transform="translate(1039.449219 0)"/>
     <use xlink:href="#DejaVuSans-67" transform="translate(1067.232422 0)"/>
     <use xlink:href="#DejaVuSans-6e" transform="translate(1130.708984 0)"/>
     <use xlink:href="#DejaVuSans-61" transform="translate(1194.087891 0)"/>
     <use xlink:href="#DejaVuSans-6c" transform="translate(1255.367188 0)"/>
     <use xlink:href="#DejaVuSans-20" transform="translate(1283.150391 0)"/>
     <use xlink:href="#DejaVuSans-6c" transform="translate(1314.9375 0)"/>
     <use xlink:href="#DejaVuSans-65" transform="translate(1342.720703 0)"/>
     <use xlink:href="#DejaVuSans-6e" transform="translate(1404.244141 0)"/>
     <use xlink:href="#DejaVuSans-67" transform="translate(1467.623047 0)"/>
     <use xlink:href="#DejaVuSans-74" transform="translate(1531.099609 0)"/>
     <use xlink:href="#DejaVuSans-68" transform="translate(1570.308594 0)"/>
     <use xlink:href="#DejaVuSans-20" transform="translate(1633.6875 0)"/>
     <use xlink:href="#DejaVuSans-28" transform="translate(1665.474609 0)"/>
     <use xlink:href="#DejaVuSans-7a" transform="translate(1704.488281 0)"/>
     <use xlink:href="#DejaVuSans-6f" transform="translate(1756.978516 0)"/>
     <use xlink:href="#DejaVuSans-6f" transform="translate(1818.160156 0)"/>
     <use xlink:href="#DejaVuSans-6d" transform="translate(1879.341797 0)"/>
     <use xlink:href="#DejaVuSans-65" transform="translate(1976.753906 0)"/>
     <use xlink:href="#DejaVuSans-64" transform="translate(2038.277344 0)"/>
     <use xlink:href="#DejaVuSans-29" transform="translate(2101.753906 0)"/>
    </g>
   </g>
   <g id="legend_1">
    <g id="patch_7">
     <path d="M 344.268438 122.862625 
L 407.72 122.862625 
Q 409.72 122.862625 409.72 120.862625 
L 409.72 48.472 
Q 409.72 46.472 407.72 46.472 
L 344.268438 46.472 
Q 342.268438 46.472 342.268438 48.472 
L 342.268438 120.862625 
Q 342.268438 122.862625 344.268438 122.862625 
z
" style="fill: #ffffff; opacity: 0.8; stroke: #cccccc; stroke-linejoin: miter"/>
    </g>
    <g id="line2d_17">
     <path d="M 346.268438 54.570438 
L 356.268438 54.570438 
L 366.268438 54.570438 
" style="fill: none; stroke: #1f77b4; stroke-width: 1.5; stroke-linecap: square"/>
    </g>
    <g id="text_15">
     <!-- peEn -->
     <g transform="translate(374.268438 58.070438) scale(0.1 -0.1)">
      <use xlink:href="#DejaVuSans-70"/>
      <use xlink:href="#DejaVuSans-65" transform="translate(63.476562 0)"/>
      <use xlink:href="#DejaVuSans-45" transform="translate(125 0)"/>
      <use xlink:href="#DejaVuSans-6e" transform="translate(188.183594 0)"/>
     </g>
    </g>
    <g id="line2d_18">
     <path d="M 346.268438 69.248563 
L 356.268438 69.248563 
L 366.268438 69.248563 
" style="fill: none; stroke: #ff7f0e; stroke-width: 1.5; stroke-linecap: square"/>
    </g>
    <g id="text_16">
     <!-- rpEn -->
     <g transform="translate(374.268438 72.748563) scale(0.1 -0.1)">
      <use xlink:href="#DejaVuSans-72"/>
      <use xlink:href="#DejaVuSans-70" transform="translate(41.113281 0)"/>
      <use xlink:href="#DejaVuSans-45" transform="translate(104.589844 0)"/>
      <use xlink:href="#DejaVuSans-6e" transform="translate(167.773438 0)"/>
     </g>
    </g>
    <g id="line2d_19">
     <path d="M 346.268438 83.926688 
L 356.268438 83.926688 
L 366.268438 83.926688 
" style="fill: none; stroke: #2ca02c; stroke-width: 1.5; stroke-linecap: square"/>
    </g>
    <g id="text_17">
     <!-- cPE -->
     <g transform="translate(374.268438 87.426688) scale(0.1 -0.1)">
      <defs>
       <path id="DejaVuSans-63" d="M 3122 3366 
L 3122 2828 
Q 2878 2963 2633 3030 
Q 2388 3097 2138 3097 
Q 1578 3097 1268 2742 
Q 959 2388 959 1747 
Q 959 1106 1268 751 
Q 1578 397 2138 397 
Q 2388 397 2633 464 
Q 2878 531 3122 666 
L 3122 134 
Q 2881 22 2623 -34 
Q 2366 -91 2075 -91 
Q 1284 -91 818 406 
Q 353 903 353 1747 
Q 353 2603 823 3093 
Q 1294 3584 2113 3584 
Q 2378 3584 2631 3529 
Q 2884 3475 3122 3366 
z
" transform="scale(0.015625)"/>
       <path id="DejaVuSans-50" d="M 1259 4147 
L 1259 2394 
L 2053 2394 
Q 2494 2394 2734 2622 
Q 2975 2850 2975 3272 
Q 2975 3691 2734 3919 
Q 2494 4147 2053 4147 
L 1259 4147 
z
M 628 4666 
L 2053 4666 
Q 2838 4666 3239 4311 
Q 3641 3956 3641 3272 
Q 3641 2581 3239 2228 
Q 2838 1875 2053 1875 
L 1259 1875 
L 1259 0 
L 628 0 
L 628 4666 
z
" transform="scale(0.015625)"/>
      </defs>
      <use xlink:href="#DejaVuSans-63"/>
      <use xlink:href="#DejaVuSans-50" transform="translate(54.980469 0)"/>
      <use xlink:href="#DejaVuSans-45" transform="translate(115.283203 0)"/>
     </g>
    </g>
    <g id="line2d_20">
     <path d="M 346.268438 98.604813 
L 356.268438 98.604813 
L 366.268438 98.604813 
" style="fill: none; stroke: #d62728; stroke-width: 1.5; stroke-linecap: square"/>
    </g>
    <g id="text_18">
     <!-- cRpEn -->
     <g transform="translate(374.268438 102.104813) scale(0.1 -0.1)">
      <defs>
       <path id="DejaVuSans-52" d="M 2841 2188 
Q 3044 2119 3236 1894 
Q 3428 1669 3622 1275 
L 4263 0 
L 3584 0 
L 2988 1197 
Q 2756 1666 2539 1819 
Q 2322 1972 1947 1972 
L 1259 1972 
L 1259 0 
L 628 0 
L 628 4666 
L 2053 4666 
Q 2853 4666 3247 4331 
Q 3641 3997 3641 3322 
Q 3641 2881 3436 2590 
Q 3231 2300 2841 2188 
z
M 1259 4147 
L 1259 2491 
L 2053 2491 
Q 2509 2491 2742 2702 
Q 2975 2913 2975 3322 
Q 2975 3731 2742 3939 
Q 2509 4147 2053 4147 
L 1259 4147 
z
" transform="scale(0.015625)"/>
      </defs>
      <use xlink:href="#DejaVuSans-63"/>
      <use xlink:href="#DejaVuSans-52" transform="translate(54.980469 0)"/>
      <use xlink:href="#DejaVuSans-70" transform="translate(124.462891 0)"/>
      <use xlink:href="#DejaVuSans-45" transform="translate(187.939453 0)"/>
      <use xlink:href="#DejaVuSans-6e" transform="translate(251.123047 0)"/>
     </g>
    </g>
    <g id="line2d_21">
     <path d="M 346.268438 113.282938 
L 356.268438 113.282938 
L 366.268438 113.282938 
" style="fill: none; stroke: #9467bd; stroke-width: 1.5; stroke-linecap: square"/>
    </g>
    <g id="text_19">
     <!-- bbEn -->
     <g transform="translate(374.268438 116.782938) scale(0.1 -0.1)">
      <defs>
       <path id="DejaVuSans-62" d="M 3116 1747 
Q 3116 2381 2855 2742 
Q 2594 3103 2138 3103 
Q 1681 3103 1420 2742 
Q 1159 2381 1159 1747 
Q 1159 1113 1420 752 
Q 1681 391 2138 391 
Q 2594 391 2855 752 
Q 3116 1113 3116 1747 
z
M 1159 2969 
Q 1341 3281 1617 3432 
Q 1894 3584 2278 3584 
Q 2916 3584 3314 3078 
Q 3713 2572 3713 1747 
Q 3713 922 3314 415 
Q 2916 -91 2278 -91 
Q 1894 -91 1617 61 
Q 1341 213 1159 525 
L 1159 0 
L 581 0 
L 581 4863 
L 1159 4863 
L 1159 2969 
z
" transform="scale(0.015625)"/>
      </defs>
      <use xlink:href="#DejaVuSans-62"/>
      <use xlink:href="#DejaVuSans-62" transform="translate(63.476562 0)"/>
      <use xlink:href="#DejaVuSans-45" transform="translate(126.953125 0)"/>
      <use xlink:href="#DejaVuSans-6e" transform="translate(190.136719 0)"/>
     </g>
    </g>
   </g>
  </g>
 </g>
 <defs>
  <clipPath id="p9e4f424589">
   <rect x="57.6" y="41.472" width="357.12" height="266.112"/>
  </clipPath>
 </defs>
</svg>
