<?xml version="1.0" encoding="utf-8" standalone="no"?>
<!DOCTYPE svg PUBLIC "-//W3C//DTD SVG 1.1//EN"
  "http://www.w3.org/Graphics/SVG/1.1/DTD/svg11.dtd">
<svg xmlns:xlink="http://www.w3.org/1999/xlink" width="460.8pt" height="345.6pt" viewBox="0 0 460.8 345.6" xmlns="http://www.w3.org/2000/svg" version="1.1">
 <metadata>
  <rdf:RDF xmlns:dc="http://purl.org/dc/elements/1.1/" xmlns:cc="http://creativecommons.org/ns#" xmlns:rdf="http://www.w3.org/1999/02/22-rdf-syntax-ns#">
   <cc:Work>
    <dc:type rdf:resource="http://purl.org/dc/dcmitype/StillImage"/>
    <dc:date>2025-02-17T01:55:23.064553</dc:date>
    <dc:format>image/svg+xml</dc:format>
    <dc:creator>
     <cc:Agent>
      <dc:title>Matplotlib v3.10.0, https://matplotlib.org/</dc:title>
     </cc:Agent>
    </dc:creator>
   </cc:Work>
  </rdf:RDF>
 </metadata>
 <defs>
  <style type="text/css">*{stroke-linejoin: round; stroke-linecap: butt}</style>
 </defs>
 <g id="figure_1">
  <g id="patch_1">
   <path d="M 0 345.6 
L 460.8 345.6 
L 460.8 0 
L 0 0 
z
" style="fill: #ffffff"/>
  </g>
  <g id="axes_1">
   <g id="patch_2">
    <path d="M 57.6 307.584 
L 414.72 307.584 
L 414.72 41.472 
L 57.6 41.472 
z
" style="fill: #ffffff"/>
   </g>
   <g id="matplotlib.axis_1">
    <g id="xtick_1">
     <g id="line2d_1">
      <defs>
       <path id="m2d56823fdf" d="M 0 0 
L 0 3.5 
" style="stroke: #000000; stroke-width: 0.8"/>
      </defs>
      <g>
       <use xlink:href="#m2d56823fdf" x="72.193058" y="307.584" style="stroke: #000000; stroke-width: 0.8"/>
      </g>
     </g>
     <g id="text_1">
      <!-- 0 -->
      <g transform="translate(69.011808 322.182437) scale(0.1 -0.1)">
       <defs>
        <path id="DejaVuSans-30" d="M 2034 4250 
Q 1547 4250 1301 3770 
Q 1056 3291 1056 2328 
Q 1056 1369 1301 889 
Q 1547 409 2034 409 
Q 2525 409 2770 889 
Q 3016 1369 3016 2328 
Q 3016 3291 2770 3770 
Q 2525 4250 2034 4250 
z
M 2034 4750 
Q 2819 4750 3233 4129 
Q 3647 3509 3647 2328 
Q 3647 1150 3233 529 
Q 2819 -91 2034 -91 
Q 1250 -91 836 529 
Q 422 1150 422 2328 
Q 422 3509 836 4129 
Q 1250 4750 2034 4750 
z
" transform="scale(0.015625)"/>
       </defs>
       <use xlink:href="#DejaVuSans-30"/>
      </g>
     </g>
    </g>
    <g id="xtick_2">
     <g id="line2d_2">
      <g>
       <use xlink:href="#m2d56823fdf" x="137.779835" y="307.584" style="stroke: #000000; stroke-width: 0.8"/>
      </g>
     </g>
     <g id="text_2">
      <!-- 2000 -->
      <g transform="translate(125.054835 322.182437) scale(0.1 -0.1)">
       <defs>
        <path id="DejaVuSans-32" d="M 1228 531 
L 3431 531 
L 3431 0 
L 469 0 
L 469 531 
Q 828 903 1448 1529 
Q 2069 2156 2228 2338 
Q 2531 2678 2651 2914 
Q 2772 3150 2772 3378 
Q 2772 3750 2511 3984 
Q 2250 4219 1831 4219 
Q 1534 4219 1204 4116 
Q 875 4013 500 3803 
L 500 4441 
Q 881 4594 1212 4672 
Q 1544 4750 1819 4750 
Q 2544 4750 2975 4387 
Q 3406 4025 3406 3419 
Q 3406 3131 3298 2873 
Q 3191 2616 2906 2266 
Q 2828 2175 2409 1742 
Q 1991 1309 1228 531 
z
" transform="scale(0.015625)"/>
       </defs>
       <use xlink:href="#DejaVuSans-32"/>
       <use xlink:href="#DejaVuSans-30" transform="translate(63.623047 0)"/>
       <use xlink:href="#DejaVuSans-30" transform="translate(127.246094 0)"/>
       <use xlink:href="#DejaVuSans-30" transform="translate(190.869141 0)"/>
      </g>
     </g>
    </g>
    <g id="xtick_3">
     <g id="line2d_3">
      <g>
       <use xlink:href="#m2d56823fdf" x="203.366612" y="307.584" style="stroke: #000000; stroke-width: 0.8"/>
      </g>
     </g>
     <g id="text_3">
      <!-- 4000 -->
      <g transform="translate(190.641612 322.182437) scale(0.1 -0.1)">
       <defs>
        <path id="DejaVuSans-34" d="M 2419 4116 
L 825 1625 
L 2419 1625 
L 2419 4116 
z
M 2253 4666 
L 3047 4666 
L 3047 1625 
L 3713 1625 
L 3713 1100 
L 3047 1100 
L 3047 0 
L 2419 0 
L 2419 1100 
L 313 1100 
L 313 1709 
L 2253 4666 
z
" transform="scale(0.015625)"/>
       </defs>
       <use xlink:href="#DejaVuSans-34"/>
       <use xlink:href="#DejaVuSans-30" transform="translate(63.623047 0)"/>
       <use xlink:href="#DejaVuSans-30" transform="translate(127.246094 0)"/>
       <use xlink:href="#DejaVuSans-30" transform="translate(190.869141 0)"/>
      </g>
     </g>
    </g>
    <g id="xtick_4">
     <g id="line2d_4">
      <g>
       <use xlink:href="#m2d56823fdf" x="268.953388" y="307.584" style="stroke: #000000; stroke-width: 0.8"/>
      </g>
     </g>
     <g id="text_4">
      <!-- 6000 -->
      <g transform="translate(256.228388 322.182437) scale(0.1 -0.1)">
       <defs>
        <path id="DejaVuSans-36" d="M 2113 2584 
Q 1688 2584 1439 2293 
Q 1191 2003 1191 1497 
Q 1191 994 1439 701 
Q 1688 409 2113 409 
Q 2538 409 2786 701 
Q 3034 994 3034 1497 
Q 3034 2003 2786 2293 
Q 2538 2584 2113 2584 
z
M 3366 4563 
L 3366 3988 
Q 3128 4100 2886 4159 
Q 2644 4219 2406 4219 
Q 1781 4219 1451 3797 
Q 1122 3375 1075 2522 
Q 1259 2794 1537 2939 
Q 1816 3084 2150 3084 
Q 2853 3084 3261 2657 
Q 3669 2231 3669 1497 
Q 3669 778 3244 343 
Q 2819 -91 2113 -91 
Q 1303 -91 875 529 
Q 447 1150 447 2328 
Q 447 3434 972 4092 
Q 1497 4750 2381 4750 
Q 2619 4750 2861 4703 
Q 3103 4656 3366 4563 
z
" transform="scale(0.015625)"/>
       </defs>
       <use xlink:href="#DejaVuSans-36"/>
       <use xlink:href="#DejaVuSans-30" transform="translate(63.623047 0)"/>
       <use xlink:href="#DejaVuSans-30" transform="translate(127.246094 0)"/>
       <use xlink:href="#DejaVuSans-30" transform="translate(190.869141 0)"/>
      </g>
     </g>
    </g>
    <g id="xtick_5">
     <g id="line2d_5">
      <g>
       <use xlink:href="#m2d56823fdf" x="334.540165" y="307.584" style="stroke: #000000; stroke-width: 0.8"/>
      </g>
     </g>
     <g id="text_5">
      <!-- 8000 -->
      <g transform="translate(321.815165 322.182437) scale(0.1 -0.1)">
       <defs>
        <path id="DejaVuSans-38" d="M 2034 2216 
Q 1584 2216 1326 1975 
Q 1069 1734 1069 1313 
Q 1069 891 1326 650 
Q 1584 409 2034 409 
Q 2484 409 2743 651 
Q 3003 894 3003 1313 
Q 3003 1734 2745 1975 
Q 2488 2216 2034 2216 
z
M 1403 2484 
Q 997 2584 770 2862 
Q 544 3141 544 3541 
Q 544 4100 942 4425 
Q 1341 4750 2034 4750 
Q 2731 4750 3128 4425 
Q 3525 4100 3525 3541 
Q 3525 3141 3298 2862 
Q 3072 2584 2669 2484 
Q 3125 2378 3379 2068 
Q 3634 1759 3634 1313 
Q 3634 634 3220 271 
Q 2806 -91 2034 -91 
Q 1263 -91 848 271 
Q 434 634 434 1313 
Q 434 1759 690 2068 
Q 947 2378 1403 2484 
z
M 1172 3481 
Q 1172 3119 1398 2916 
Q 1625 2713 2034 2713 
Q 2441 2713 2670 2916 
Q 2900 3119 2900 3481 
Q 2900 3844 2670 4047 
Q 2441 4250 2034 4250 
Q 1625 4250 1398 4047 
Q 1172 3844 1172 3481 
z
" transform="scale(0.015625)"/>
       </defs>
       <use xlink:href="#DejaVuSans-38"/>
       <use xlink:href="#DejaVuSans-30" transform="translate(63.623047 0)"/>
       <use xlink:href="#DejaVuSans-30" transform="translate(127.246094 0)"/>
       <use xlink:href="#DejaVuSans-30" transform="translate(190.869141 0)"/>
      </g>
     </g>
    </g>
    <g id="xtick_6">
     <g id="line2d_6">
      <g>
       <use xlink:href="#m2d56823fdf" x="400.126942" y="307.584" style="stroke: #000000; stroke-width: 0.8"/>
      </g>
     </g>
     <g id="text_6">
      <!-- 10000 -->
      <g transform="translate(384.220692 322.182437) scale(0.1 -0.1)">
       <defs>
        <path id="DejaVuSans-31" d="M 794 531 
L 1825 531 
L 1825 4091 
L 703 3866 
L 703 4441 
L 1819 4666 
L 2450 4666 
L 2450 531 
L 3481 531 
L 3481 0 
L 794 0 
L 794 531 
z
" transform="scale(0.015625)"/>
       </defs>
       <use xlink:href="#DejaVuSans-31"/>
       <use xlink:href="#DejaVuSans-30" transform="translate(63.623047 0)"/>
       <use xlink:href="#DejaVuSans-30" transform="translate(127.246094 0)"/>
       <use xlink:href="#DejaVuSans-30" transform="translate(190.869141 0)"/>
       <use xlink:href="#DejaVuSans-30" transform="translate(254.492188 0)"/>
      </g>
     </g>
    </g>
    <g id="text_7">
     <!-- Signal length -->
     <g transform="translate(203.274062 335.860562) scale(0.1 -0.1)">
      <defs>
       <path id="DejaVuSans-53" d="M 3425 4513 
L 3425 3897 
Q 3066 4069 2747 4153 
Q 2428 4238 2131 4238 
Q 1616 4238 1336 4038 
Q 1056 3838 1056 3469 
Q 1056 3159 1242 3001 
Q 1428 2844 1947 2747 
L 2328 2669 
Q 3034 2534 3370 2195 
Q 3706 1856 3706 1288 
Q 3706 609 3251 259 
Q 2797 -91 1919 -91 
Q 1588 -91 1214 -16 
Q 841 59 441 206 
L 441 856 
Q 825 641 1194 531 
Q 1563 422 1919 422 
Q 2459 422 2753 634 
Q 3047 847 3047 1241 
Q 3047 1584 2836 1778 
Q 2625 1972 2144 2069 
L 1759 2144 
Q 1053 2284 737 2584 
Q 422 2884 422 3419 
Q 422 4038 858 4394 
Q 1294 4750 2059 4750 
Q 2388 4750 2728 4690 
Q 3069 4631 3425 4513 
z
" transform="scale(0.015625)"/>
       <path id="DejaVuSans-69" d="M 603 3500 
L 1178 3500 
L 1178 0 
L 603 0 
L 603 3500 
z
M 603 4863 
L 1178 4863 
L 1178 4134 
L 603 4134 
L 603 4863 
z
" transform="scale(0.015625)"/>
       <path id="DejaVuSans-67" d="M 2906 1791 
Q 2906 2416 2648 2759 
Q 2391 3103 1925 3103 
Q 1463 3103 1205 2759 
Q 947 2416 947 1791 
Q 947 1169 1205 825 
Q 1463 481 1925 481 
Q 2391 481 2648 825 
Q 2906 1169 2906 1791 
z
M 3481 434 
Q 3481 -459 3084 -895 
Q 2688 -1331 1869 -1331 
Q 1566 -1331 1297 -1286 
Q 1028 -1241 775 -1147 
L 775 -588 
Q 1028 -725 1275 -790 
Q 1522 -856 1778 -856 
Q 2344 -856 2625 -561 
Q 2906 -266 2906 331 
L 2906 616 
Q 2728 306 2450 153 
Q 2172 0 1784 0 
Q 1141 0 747 490 
Q 353 981 353 1791 
Q 353 2603 747 3093 
Q 1141 3584 1784 3584 
Q 2172 3584 2450 3431 
Q 2728 3278 2906 2969 
L 2906 3500 
L 3481 3500 
L 3481 434 
z
" transform="scale(0.015625)"/>
       <path id="DejaVuSans-6e" d="M 3513 2113 
L 3513 0 
L 2938 0 
L 2938 2094 
Q 2938 2591 2744 2837 
Q 2550 3084 2163 3084 
Q 1697 3084 1428 2787 
Q 1159 2491 1159 1978 
L 1159 0 
L 581 0 
L 581 3500 
L 1159 3500 
L 1159 2956 
Q 1366 3272 1645 3428 
Q 1925 3584 2291 3584 
Q 2894 3584 3203 3211 
Q 3513 2838 3513 2113 
z
" transform="scale(0.015625)"/>
       <path id="DejaVuSans-61" d="M 2194 1759 
Q 1497 1759 1228 1600 
Q 959 1441 959 1056 
Q 959 750 1161 570 
Q 1363 391 1709 391 
Q 2188 391 2477 730 
Q 2766 1069 2766 1631 
L 2766 1759 
L 2194 1759 
z
M 3341 1997 
L 3341 0 
L 2766 0 
L 2766 531 
Q 2569 213 2275 61 
Q 1981 -91 1556 -91 
Q 1019 -91 701 211 
Q 384 513 384 1019 
Q 384 1609 779 1909 
Q 1175 2209 1959 2209 
L 2766 2209 
L 2766 2266 
Q 2766 2663 2505 2880 
Q 2244 3097 1772 3097 
Q 1472 3097 1187 3025 
Q 903 2953 641 2809 
L 641 3341 
Q 956 3463 1253 3523 
Q 1550 3584 1831 3584 
Q 2591 3584 2966 3190 
Q 3341 2797 3341 1997 
z
" transform="scale(0.015625)"/>
       <path id="DejaVuSans-6c" d="M 603 4863 
L 1178 4863 
L 1178 0 
L 603 0 
L 603 4863 
z
" transform="scale(0.015625)"/>
       <path id="DejaVuSans-20" transform="scale(0.015625)"/>
       <path id="DejaVuSans-65" d="M 3597 1894 
L 3597 1613 
L 953 1613 
Q 991 1019 1311 708 
Q 1631 397 2203 397 
Q 2534 397 2845 478 
Q 3156 559 3463 722 
L 3463 178 
Q 3153 47 2828 -22 
Q 2503 -91 2169 -91 
Q 1331 -91 842 396 
Q 353 884 353 1716 
Q 353 2575 817 3079 
Q 1281 3584 2069 3584 
Q 2775 3584 3186 3129 
Q 3597 2675 3597 1894 
z
M 3022 2063 
Q 3016 2534 2758 2815 
Q 2500 3097 2075 3097 
Q 1594 3097 1305 2825 
Q 1016 2553 972 2059 
L 3022 2063 
z
" transform="scale(0.015625)"/>
       <path id="DejaVuSans-74" d="M 1172 4494 
L 1172 3500 
L 2356 3500 
L 2356 3053 
L 1172 3053 
L 1172 1153 
Q 1172 725 1289 603 
Q 1406 481 1766 481 
L 2356 481 
L 2356 0 
L 1766 0 
Q 1100 0 847 248 
Q 594 497 594 1153 
L 594 3053 
L 172 3053 
L 172 3500 
L 594 3500 
L 594 4494 
L 1172 4494 
z
" transform="scale(0.015625)"/>
       <path id="DejaVuSans-68" d="M 3513 2113 
L 3513 0 
L 2938 0 
L 2938 2094 
Q 2938 2591 2744 2837 
Q 2550 3084 2163 3084 
Q 1697 3084 1428 2787 
Q 1159 2491 1159 1978 
L 1159 0 
L 581 0 
L 581 4863 
L 1159 4863 
L 1159 2956 
Q 1366 3272 1645 3428 
Q 1925 3584 2291 3584 
Q 2894 3584 3203 3211 
Q 3513 2838 3513 2113 
z
" transform="scale(0.015625)"/>
      </defs>
      <use xlink:href="#DejaVuSans-53"/>
      <use xlink:href="#DejaVuSans-69" transform="translate(63.476562 0)"/>
      <use xlink:href="#DejaVuSans-67" transform="translate(91.259766 0)"/>
      <use xlink:href="#DejaVuSans-6e" transform="translate(154.736328 0)"/>
      <use xlink:href="#DejaVuSans-61" transform="translate(218.115234 0)"/>
      <use xlink:href="#DejaVuSans-6c" transform="translate(279.394531 0)"/>
      <use xlink:href="#DejaVuSans-20" transform="translate(307.177734 0)"/>
      <use xlink:href="#DejaVuSans-6c" transform="translate(338.964844 0)"/>
      <use xlink:href="#DejaVuSans-65" transform="translate(366.748047 0)"/>
      <use xlink:href="#DejaVuSans-6e" transform="translate(428.271484 0)"/>
      <use xlink:href="#DejaVuSans-67" transform="translate(491.650391 0)"/>
      <use xlink:href="#DejaVuSans-74" transform="translate(555.126953 0)"/>
      <use xlink:href="#DejaVuSans-68" transform="translate(594.335938 0)"/>
     </g>
    </g>
   </g>
   <g id="matplotlib.axis_2">
    <g id="ytick_1">
     <g id="line2d_7">
      <defs>
       <path id="m8bbb72379f" d="M 0 0 
L -3.5 0 
" style="stroke: #000000; stroke-width: 0.8"/>
      </defs>
      <g>
       <use xlink:href="#m8bbb72379f" x="57.6" y="295.630381" style="stroke: #000000; stroke-width: 0.8"/>
      </g>
     </g>
     <g id="text_8">
      <!-- 0 -->
      <g transform="translate(44.2375 299.4296) scale(0.1 -0.1)">
       <use xlink:href="#DejaVuSans-30"/>
      </g>
     </g>
    </g>
    <g id="ytick_2">
     <g id="line2d_8">
      <g>
       <use xlink:href="#m8bbb72379f" x="57.6" y="242.165745" style="stroke: #000000; stroke-width: 0.8"/>
      </g>
     </g>
     <g id="text_9">
      <!-- 2 -->
      <g transform="translate(44.2375 245.964964) scale(0.1 -0.1)">
       <use xlink:href="#DejaVuSans-32"/>
      </g>
     </g>
    </g>
    <g id="ytick_3">
     <g id="line2d_9">
      <g>
       <use xlink:href="#m8bbb72379f" x="57.6" y="188.70111" style="stroke: #000000; stroke-width: 0.8"/>
      </g>
     </g>
     <g id="text_10">
      <!-- 4 -->
      <g transform="translate(44.2375 192.500328) scale(0.1 -0.1)">
       <use xlink:href="#DejaVuSans-34"/>
      </g>
     </g>
    </g>
    <g id="ytick_4">
     <g id="line2d_10">
      <g>
       <use xlink:href="#m8bbb72379f" x="57.6" y="135.236474" style="stroke: #000000; stroke-width: 0.8"/>
      </g>
     </g>
     <g id="text_11">
      <!-- 6 -->
      <g transform="translate(44.2375 139.035693) scale(0.1 -0.1)">
       <use xlink:href="#DejaVuSans-36"/>
      </g>
     </g>
    </g>
    <g id="ytick_5">
     <g id="line2d_11">
      <g>
       <use xlink:href="#m8bbb72379f" x="57.6" y="81.771838" style="stroke: #000000; stroke-width: 0.8"/>
      </g>
     </g>
     <g id="text_12">
      <!-- 8 -->
      <g transform="translate(44.2375 85.571057) scale(0.1 -0.1)">
       <use xlink:href="#DejaVuSans-38"/>
      </g>
     </g>
    </g>
    <g id="text_13">
     <!-- Entropy -->
     <g transform="translate(38.157812 193.952219) rotate(-90) scale(0.1 -0.1)">
      <defs>
       <path id="DejaVuSans-45" d="M 628 4666 
L 3578 4666 
L 3578 4134 
L 1259 4134 
L 1259 2753 
L 3481 2753 
L 3481 2222 
L 1259 2222 
L 1259 531 
L 3634 531 
L 3634 0 
L 628 0 
L 628 4666 
z
" transform="scale(0.015625)"/>
       <path id="DejaVuSans-72" d="M 2631 2963 
Q 2534 3019 2420 3045 
Q 2306 3072 2169 3072 
Q 1681 3072 1420 2755 
Q 1159 2438 1159 1844 
L 1159 0 
L 581 0 
L 581 3500 
L 1159 3500 
L 1159 2956 
Q 1341 3275 1631 3429 
Q 1922 3584 2338 3584 
Q 2397 3584 2469 3576 
Q 2541 3569 2628 3553 
L 2631 2963 
z
" transform="scale(0.015625)"/>
       <path id="DejaVuSans-6f" d="M 1959 3097 
Q 1497 3097 1228 2736 
Q 959 2375 959 1747 
Q 959 1119 1226 758 
Q 1494 397 1959 397 
Q 2419 397 2687 759 
Q 2956 1122 2956 1747 
Q 2956 2369 2687 2733 
Q 2419 3097 1959 3097 
z
M 1959 3584 
Q 2709 3584 3137 3096 
Q 3566 2609 3566 1747 
Q 3566 888 3137 398 
Q 2709 -91 1959 -91 
Q 1206 -91 779 398 
Q 353 888 353 1747 
Q 353 2609 779 3096 
Q 1206 3584 1959 3584 
z
" transform="scale(0.015625)"/>
       <path id="DejaVuSans-70" d="M 1159 525 
L 1159 -1331 
L 581 -1331 
L 581 3500 
L 1159 3500 
L 1159 2969 
Q 1341 3281 1617 3432 
Q 1894 3584 2278 3584 
Q 2916 3584 3314 3078 
Q 3713 2572 3713 1747 
Q 3713 922 3314 415 
Q 2916 -91 2278 -91 
Q 1894 -91 1617 61 
Q 1341 213 1159 525 
z
M 3116 1747 
Q 3116 2381 2855 2742 
Q 2594 3103 2138 3103 
Q 1681 3103 1420 2742 
Q 1159 2381 1159 1747 
Q 1159 1113 1420 752 
Q 1681 391 2138 391 
Q 2594 391 2855 752 
Q 3116 1113 3116 1747 
z
" transform="scale(0.015625)"/>
       <path id="DejaVuSans-79" d="M 2059 -325 
Q 1816 -950 1584 -1140 
Q 1353 -1331 966 -1331 
L 506 -1331 
L 506 -850 
L 844 -850 
Q 1081 -850 1212 -737 
Q 1344 -625 1503 -206 
L 1606 56 
L 191 3500 
L 800 3500 
L 1894 763 
L 2988 3500 
L 3597 3500 
L 2059 -325 
z
" transform="scale(0.015625)"/>
      </defs>
      <use xlink:href="#DejaVuSans-45"/>
      <use xlink:href="#DejaVuSans-6e" transform="translate(63.183594 0)"/>
      <use xlink:href="#DejaVuSans-74" transform="translate(126.5625 0)"/>
      <use xlink:href="#DejaVuSans-72" transform="translate(165.771484 0)"/>
      <use xlink:href="#DejaVuSans-6f" transform="translate(204.634766 0)"/>
      <use xlink:href="#DejaVuSans-70" transform="translate(265.816406 0)"/>
      <use xlink:href="#DejaVuSans-79" transform="translate(329.292969 0)"/>
     </g>
    </g>
   </g>
   <g id="line2d_12">
    <path d="M 73.832727 196.403186 
L 77.112066 163.571883 
L 80.391405 149.389222 
L 83.670744 140.164399 
L 86.950083 133.281316 
L 90.229421 127.95152 
L 93.50876 123.465948 
L 96.788099 119.682824 
L 100.067438 116.421669 
L 103.346777 113.476648 
L 106.626116 110.842695 
L 109.905455 108.45544 
L 113.184793 106.218383 
L 116.464132 104.228425 
L 119.743471 102.361014 
L 123.02281 100.63382 
L 126.302149 99.012597 
L 129.581488 97.495342 
L 132.860826 96.024159 
L 136.140165 94.649402 
L 139.419504 93.351755 
L 142.698843 92.103814 
L 145.978182 90.923768 
L 149.257521 89.825657 
L 152.53686 88.728122 
L 155.816198 87.68247 
L 159.095537 86.680221 
L 162.374876 85.722652 
L 165.654215 84.783488 
L 168.933554 83.893029 
L 172.212893 83.036844 
L 175.492231 82.204275 
L 178.77157 81.400865 
L 182.050909 80.607501 
L 185.330248 79.862909 
L 188.609587 79.198965 
L 191.888926 78.461944 
L 195.168264 77.749056 
L 198.447603 77.088269 
L 201.726942 76.435653 
L 205.006281 75.805274 
L 208.28562 75.189986 
L 211.564959 74.597016 
L 214.844298 74.032394 
L 218.123636 73.448025 
L 221.402975 72.883611 
L 224.682314 72.323957 
L 227.961653 71.808061 
L 231.240992 71.297045 
L 234.520331 70.785717 
L 237.799669 70.267182 
L 241.079008 69.752108 
L 244.358347 69.291704 
L 247.637686 68.795827 
L 250.917025 68.332021 
L 254.196364 67.864808 
L 257.475702 67.42422 
L 260.755041 66.977587 
L 264.03438 66.542312 
L 267.313719 66.146815 
L 270.593058 65.736038 
L 273.872397 65.340652 
L 277.151736 64.933907 
L 280.431074 64.543995 
L 283.710413 64.12605 
L 286.989752 63.742057 
L 290.269091 63.367851 
L 293.54843 63.003179 
L 296.827769 62.641572 
L 300.107107 62.298994 
L 303.386446 61.957413 
L 306.665785 61.613215 
L 309.945124 61.258562 
L 313.224463 60.906874 
L 316.503802 60.57885 
L 319.78314 60.252637 
L 323.062479 59.931432 
L 326.341818 59.621312 
L 329.621157 59.293868 
L 332.900496 59.012844 
L 336.179835 58.70825 
L 339.459174 58.405311 
L 342.738512 58.105388 
L 346.017851 57.801734 
L 349.29719 57.522872 
L 352.576529 57.227046 
L 355.855868 56.942887 
L 359.135207 56.684726 
L 362.414545 56.409607 
L 365.693884 56.139693 
L 368.973223 55.86836 
L 372.252562 55.606359 
L 375.531901 55.348248 
L 378.81124 55.06851 
L 382.090579 54.816368 
L 385.369917 54.555641 
L 388.649256 54.303643 
L 391.928595 54.062675 
L 395.207934 53.808971 
L 398.487273 53.568 
" clip-path="url(#p6e20769ba7)" style="fill: none; stroke: #1f77b4; stroke-width: 1.5; stroke-linecap: square"/>
   </g>
   <g id="line2d_13">
    <path d="M 73.832727 252.544578 
L 77.112066 238.367353 
L 80.391405 232.286187 
L 83.670744 228.271038 
L 86.950083 225.27056 
L 90.229421 223.021978 
L 93.50876 221.106948 
L 96.788099 219.493082 
L 100.067438 218.199828 
L 103.346777 217.010775 
L 106.626116 215.878707 
L 109.905455 214.859785 
L 113.184793 213.891777 
L 116.464132 213.07307 
L 119.743471 212.307784 
L 123.02281 211.629284 
L 126.302149 210.967274 
L 129.581488 210.341735 
L 132.860826 209.703048 
L 136.140165 209.110965 
L 139.419504 208.603178 
L 142.698843 208.062176 
L 145.978182 207.581521 
L 149.257521 207.115776 
L 152.53686 206.643423 
L 155.816198 206.23032 
L 159.095537 205.806725 
L 162.374876 205.504938 
L 165.654215 205.093919 
L 168.933554 204.744669 
L 172.212893 204.400351 
L 175.492231 204.059726 
L 178.77157 203.730685 
L 182.050909 203.401339 
L 185.330248 203.118141 
L 188.609587 202.992356 
L 191.888926 202.666252 
L 195.168264 202.356877 
L 198.447603 202.08478 
L 201.726942 201.826097 
L 205.006281 201.581637 
L 208.28562 201.337169 
L 211.564959 201.094952 
L 214.844298 200.90399 
L 218.123636 200.668287 
L 221.402975 200.433279 
L 224.682314 200.196834 
L 227.961653 200.00134 
L 231.240992 199.830319 
L 234.520331 199.640345 
L 237.799669 199.421148 
L 241.079008 199.186782 
L 244.358347 199.023486 
L 247.637686 198.821621 
L 250.917025 198.633386 
L 254.196364 198.436988 
L 257.475702 198.276544 
L 260.755041 198.092625 
L 264.03438 197.911065 
L 267.313719 197.789803 
L 270.593058 197.638243 
L 273.872397 197.507204 
L 277.151736 197.343664 
L 280.431074 197.185452 
L 283.710413 196.999734 
L 286.989752 196.866658 
L 290.269091 196.720763 
L 293.54843 196.602876 
L 296.827769 196.480019 
L 300.107107 196.368497 
L 303.386446 196.250543 
L 306.665785 196.111046 
L 309.945124 195.99125 
L 313.224463 195.854283 
L 316.503802 195.739742 
L 319.78314 195.631907 
L 323.062479 195.509648 
L 326.341818 195.393777 
L 329.621157 195.261604 
L 332.900496 195.213784 
L 336.179835 195.106119 
L 339.459174 194.976461 
L 342.738512 194.860103 
L 346.017851 194.741819 
L 349.29719 194.644663 
L 352.576529 194.524523 
L 355.855868 194.424989 
L 359.135207 194.381918 
L 362.414545 194.285158 
L 365.693884 194.201448 
L 368.973223 194.087026 
L 372.252562 194.037349 
L 375.531901 193.969893 
L 378.81124 193.859953 
L 382.090579 193.782487 
L 385.369917 193.677109 
L 388.649256 193.605603 
L 391.928595 193.552553 
L 395.207934 193.458995 
L 398.487273 193.389326 
" clip-path="url(#p6e20769ba7)" style="fill: none; stroke: #ff7f0e; stroke-width: 1.5; stroke-linecap: square"/>
   </g>
   <g id="line2d_14">
    <path d="M 73.832727 288.107412 
L 77.112066 279.481381 
L 80.391405 274.822277 
L 83.670744 271.52638 
L 86.950083 269.31978 
L 90.229421 267.733628 
L 93.50876 266.205027 
L 96.788099 265.148976 
L 100.067438 264.188231 
L 103.346777 263.314022 
L 106.626116 262.700955 
L 109.905455 262.197389 
L 113.184793 261.654383 
L 116.464132 261.247131 
L 119.743471 260.846527 
L 123.02281 260.455549 
L 126.302149 260.095311 
L 129.581488 259.782845 
L 132.860826 259.462942 
L 136.140165 259.196069 
L 139.419504 258.965079 
L 142.698843 258.753902 
L 145.978182 258.551691 
L 149.257521 258.36531 
L 152.53686 258.194073 
L 155.816198 258.039405 
L 159.095537 257.850089 
L 162.374876 257.708427 
L 165.654215 257.594597 
L 168.933554 257.49573 
L 172.212893 257.422483 
L 175.492231 257.363224 
L 178.77157 257.282055 
L 182.050909 257.170363 
L 185.330248 257.099789 
L 188.609587 257.048 
L 191.888926 256.955036 
L 195.168264 256.877523 
L 198.447603 256.820181 
L 201.726942 256.762998 
L 205.006281 256.720155 
L 208.28562 256.67105 
L 211.564959 256.620092 
L 214.844298 256.568868 
L 218.123636 256.506409 
L 221.402975 256.437676 
L 224.682314 256.402028 
L 227.961653 256.366687 
L 231.240992 256.322608 
L 234.520331 256.286263 
L 237.799669 256.237501 
L 241.079008 256.19137 
L 244.358347 256.169907 
L 247.637686 256.125908 
L 250.917025 256.092188 
L 254.196364 256.073263 
L 257.475702 256.056765 
L 260.755041 256.023181 
L 264.03438 256.001658 
L 267.313719 255.989524 
L 270.593058 255.970085 
L 273.872397 255.962622 
L 277.151736 255.948107 
L 280.431074 255.922928 
L 283.710413 255.890557 
L 286.989752 255.871477 
L 290.269091 255.864398 
L 293.54843 255.851053 
L 296.827769 255.831033 
L 300.107107 255.819989 
L 303.386446 255.819437 
L 306.665785 255.816365 
L 309.945124 255.792135 
L 313.224463 255.763231 
L 316.503802 255.739863 
L 319.78314 255.731197 
L 323.062479 255.719794 
L 326.341818 255.718346 
L 329.621157 255.711108 
L 332.900496 255.711473 
L 336.179835 255.698683 
L 339.459174 255.687471 
L 342.738512 255.676002 
L 346.017851 255.666893 
L 349.29719 255.665805 
L 352.576529 255.644182 
L 355.855868 255.625835 
L 359.135207 255.623429 
L 362.414545 255.611123 
L 365.693884 255.602143 
L 368.973223 255.590433 
L 372.252562 255.577556 
L 375.531901 255.565165 
L 378.81124 255.546586 
L 382.090579 255.53227 
L 385.369917 255.507706 
L 388.649256 255.489373 
L 391.928595 255.478204 
L 395.207934 255.463283 
L 398.487273 255.459005 
" clip-path="url(#p6e20769ba7)" style="fill: none; stroke: #2ca02c; stroke-width: 1.5; stroke-linecap: square"/>
   </g>
   <g id="line2d_15">
    <path d="M 73.832727 295.488 
L 77.112066 293.235181 
L 80.391405 292.274129 
L 83.670744 291.599293 
L 86.950083 291.197142 
L 90.229421 290.981445 
L 93.50876 290.793886 
L 96.788099 290.630777 
L 100.067438 290.502811 
L 103.346777 290.36686 
L 106.626116 290.256161 
L 109.905455 290.202902 
L 113.184793 290.140692 
L 116.464132 290.071116 
L 119.743471 289.99217 
L 123.02281 289.943052 
L 126.302149 289.89152 
L 129.581488 289.835579 
L 132.860826 289.781911 
L 136.140165 289.71778 
L 139.419504 289.661632 
L 142.698843 289.601016 
L 145.978182 289.555459 
L 149.257521 289.526577 
L 152.53686 289.493031 
L 155.816198 289.483283 
L 159.095537 289.444661 
L 162.374876 289.412429 
L 165.654215 289.382646 
L 168.933554 289.363737 
L 172.212893 289.361099 
L 175.492231 289.352677 
L 178.77157 289.333162 
L 182.050909 289.309084 
L 185.330248 289.298852 
L 188.609587 289.321507 
L 191.888926 289.300471 
L 195.168264 289.290612 
L 198.447603 289.281526 
L 201.726942 289.290572 
L 205.006281 289.287286 
L 208.28562 289.276675 
L 211.564959 289.269766 
L 214.844298 289.275213 
L 218.123636 289.258203 
L 221.402975 289.253846 
L 224.682314 289.244006 
L 227.961653 289.251063 
L 231.240992 289.255329 
L 234.520331 289.249311 
L 237.799669 289.232521 
L 241.079008 289.209615 
L 244.358347 289.212475 
L 247.637686 289.197583 
L 250.917025 289.190234 
L 254.196364 289.185238 
L 257.475702 289.193261 
L 260.755041 289.186939 
L 264.03438 289.180301 
L 267.313719 289.184295 
L 270.593058 289.188102 
L 273.872397 289.200324 
L 277.151736 289.199012 
L 280.431074 289.202822 
L 283.710413 289.196085 
L 286.989752 289.193534 
L 290.269091 289.193741 
L 293.54843 289.199478 
L 296.827769 289.199457 
L 300.107107 289.196776 
L 303.386446 289.20667 
L 306.665785 289.211678 
L 309.945124 289.209408 
L 313.224463 289.199136 
L 316.503802 289.198062 
L 319.78314 289.198617 
L 323.062479 289.195052 
L 326.341818 289.191373 
L 329.621157 289.190749 
L 332.900496 289.196875 
L 336.179835 289.196102 
L 339.459174 289.197333 
L 342.738512 289.198553 
L 346.017851 289.197816 
L 349.29719 289.202012 
L 352.576529 289.197594 
L 355.855868 289.197157 
L 359.135207 289.20625 
L 362.414545 289.202898 
L 365.693884 289.205371 
L 368.973223 289.20118 
L 372.252562 289.205754 
L 375.531901 289.211456 
L 378.81124 289.205706 
L 382.090579 289.207384 
L 385.369917 289.199222 
L 388.649256 289.197284 
L 391.928595 289.202678 
L 395.207934 289.198987 
L 398.487273 289.2037 
" clip-path="url(#p6e20769ba7)" style="fill: none; stroke: #d62728; stroke-width: 1.5; stroke-linecap: square"/>
   </g>
   <g id="line2d_16">
    <path d="M 73.832727 280.751396 
L 77.112066 276.668813 
L 80.391405 275.435156 
L 83.670744 274.813947 
L 86.950083 273.322985 
L 90.229421 272.587565 
L 93.50876 272.664038 
L 96.788099 272.33947 
L 100.067438 272.56975 
L 103.346777 272.493752 
L 106.626116 272.653686 
L 109.905455 272.381374 
L 113.184793 272.259622 
L 116.464132 272.272516 
L 119.743471 272.292638 
L 123.02281 272.101918 
L 126.302149 272.149295 
L 129.581488 272.110657 
L 132.860826 272.091317 
L 136.140165 272.110417 
L 139.419504 272.086342 
L 142.698843 272.052049 
L 145.978182 271.962291 
L 149.257521 271.934352 
L 152.53686 271.888536 
L 155.816198 271.877865 
L 159.095537 272.040134 
L 162.374876 272.044024 
L 165.654215 271.936215 
L 168.933554 272.014399 
L 172.212893 272.004544 
L 175.492231 272.000099 
L 178.77157 271.99541 
L 182.050909 271.945748 
L 185.330248 271.972473 
L 188.609587 271.939377 
L 191.888926 271.909307 
L 195.168264 271.938357 
L 198.447603 271.936298 
L 201.726942 271.901848 
L 205.006281 271.856599 
L 208.28562 271.807153 
L 211.564959 271.804283 
L 214.844298 271.787603 
L 218.123636 271.789226 
L 221.402975 271.756441 
L 224.682314 271.766878 
L 227.961653 271.720216 
L 231.240992 271.742664 
L 234.520331 271.735704 
L 237.799669 271.74648 
L 241.079008 271.703767 
L 244.358347 271.701412 
L 247.637686 271.654153 
L 250.917025 271.660504 
L 254.196364 271.678698 
L 257.475702 271.671718 
L 260.755041 271.652945 
L 264.03438 271.649133 
L 267.313719 271.662849 
L 270.593058 271.693576 
L 273.872397 271.682526 
L 277.151736 271.683621 
L 280.431074 271.680365 
L 283.710413 271.658922 
L 286.989752 271.64608 
L 290.269091 271.644252 
L 293.54843 271.632795 
L 296.827769 271.637975 
L 300.107107 271.630156 
L 303.386446 271.636493 
L 306.665785 271.63904 
L 309.945124 271.657978 
L 313.224463 271.647906 
L 316.503802 271.654325 
L 319.78314 271.652914 
L 323.062479 271.662363 
L 326.341818 271.6377 
L 329.621157 271.64212 
L 332.900496 271.639871 
L 336.179835 271.639314 
L 339.459174 271.641476 
L 342.738512 271.637269 
L 346.017851 271.638866 
L 349.29719 271.651859 
L 352.576529 271.654187 
L 355.855868 271.636368 
L 359.135207 271.62429 
L 362.414545 271.616891 
L 365.693884 271.616112 
L 368.973223 271.597398 
L 372.252562 271.607905 
L 375.531901 271.601951 
L 378.81124 271.613045 
L 382.090579 271.604291 
L 385.369917 271.595494 
L 388.649256 271.603782 
L 391.928595 271.596018 
L 395.207934 271.594959 
L 398.487273 271.610093 
" clip-path="url(#p6e20769ba7)" style="fill: none; stroke: #9467bd; stroke-width: 1.5; stroke-linecap: square"/>
   </g>
   <g id="patch_3">
    <path d="M 57.6 307.584 
L 57.6 41.472 
" style="fill: none; stroke: #000000; stroke-width: 0.8; stroke-linejoin: miter; stroke-linecap: square"/>
   </g>
   <g id="patch_4">
    <path d="M 414.72 307.584 
L 414.72 41.472 
" style="fill: none; stroke: #000000; stroke-width: 0.8; stroke-linejoin: miter; stroke-linecap: square"/>
   </g>
   <g id="patch_5">
    <path d="M 57.6 307.584 
L 414.72 307.584 
" style="fill: none; stroke: #000000; stroke-width: 0.8; stroke-linejoin: miter; stroke-linecap: square"/>
   </g>
   <g id="patch_6">
    <path d="M 57.6 41.472 
L 414.72 41.472 
" style="fill: none; stroke: #000000; stroke-width: 0.8; stroke-linejoin: miter; stroke-linecap: square"/>
   </g>
   <g id="text_14">
    <!-- Entropy for various signal length (zoomed) -->
    <g transform="translate(107.714063 35.472) scale(0.12 -0.12)">
     <defs>
      <path id="DejaVuSans-66" d="M 2375 4863 
L 2375 4384 
L 1825 4384 
Q 1516 4384 1395 4259 
Q 1275 4134 1275 3809 
L 1275 3500 
L 2222 3500 
L 2222 3053 
L 1275 3053 
L 1275 0 
L 697 0 
L 697 3053 
L 147 3053 
L 147 3500 
L 697 3500 
L 697 3744 
Q 697 4328 969 4595 
Q 1241 4863 1831 4863 
L 2375 4863 
z
" transform="scale(0.015625)"/>
      <path id="DejaVuSans-76" d="M 191 3500 
L 800 3500 
L 1894 563 
L 2988 3500 
L 3597 3500 
L 2284 0 
L 1503 0 
L 191 3500 
z
" transform="scale(0.015625)"/>
      <path id="DejaVuSans-75" d="M 544 1381 
L 544 3500 
L 1119 3500 
L 1119 1403 
Q 1119 906 1312 657 
Q 1506 409 1894 409 
Q 2359 409 2629 706 
Q 2900 1003 2900 1516 
L 2900 3500 
L 3475 3500 
L 3475 0 
L 2900 0 
L 2900 538 
Q 2691 219 2414 64 
Q 2138 -91 1772 -91 
Q 1169 -91 856 284 
Q 544 659 544 1381 
z
M 1991 3584 
L 1991 3584 
z
" transform="scale(0.015625)"/>
      <path id="DejaVuSans-73" d="M 2834 3397 
L 2834 2853 
Q 2591 2978 2328 3040 
Q 2066 3103 1784 3103 
Q 1356 3103 1142 2972 
Q 928 2841 928 2578 
Q 928 2378 1081 2264 
Q 1234 2150 1697 2047 
L 1894 2003 
Q 2506 1872 2764 1633 
Q 3022 1394 3022 966 
Q 3022 478 2636 193 
Q 2250 -91 1575 -91 
Q 1294 -91 989 -36 
Q 684 19 347 128 
L 347 722 
Q 666 556 975 473 
Q 1284 391 1588 391 
Q 1994 391 2212 530 
Q 2431 669 2431 922 
Q 2431 1156 2273 1281 
Q 2116 1406 1581 1522 
L 1381 1569 
Q 847 1681 609 1914 
Q 372 2147 372 2553 
Q 372 3047 722 3315 
Q 1072 3584 1716 3584 
Q 2034 3584 2315 3537 
Q 2597 3491 2834 3397 
z
" transform="scale(0.015625)"/>
      <path id="DejaVuSans-28" d="M 1984 4856 
Q 1566 4138 1362 3434 
Q 1159 2731 1159 2009 
Q 1159 1288 1364 580 
Q 1569 -128 1984 -844 
L 1484 -844 
Q 1016 -109 783 600 
Q 550 1309 550 2009 
Q 550 2706 781 3412 
Q 1013 4119 1484 4856 
L 1984 4856 
z
" transform="scale(0.015625)"/>
      <path id="DejaVuSans-7a" d="M 353 3500 
L 3084 3500 
L 3084 2975 
L 922 459 
L 3084 459 
L 3084 0 
L 275 0 
L 275 525 
L 2438 3041 
L 353 3041 
L 353 3500 
z
" transform="scale(0.015625)"/>
      <path id="DejaVuSans-6d" d="M 3328 2828 
Q 3544 3216 3844 3400 
Q 4144 3584 4550 3584 
Q 5097 3584 5394 3201 
Q 5691 2819 5691 2113 
L 5691 0 
L 5113 0 
L 5113 2094 
Q 5113 2597 4934 2840 
Q 4756 3084 4391 3084 
Q 3944 3084 3684 2787 
Q 3425 2491 3425 1978 
L 3425 0 
L 2847 0 
L 2847 2094 
Q 2847 2600 2669 2842 
Q 2491 3084 2119 3084 
Q 1678 3084 1418 2786 
Q 1159 2488 1159 1978 
L 1159 0 
L 581 0 
L 581 3500 
L 1159 3500 
L 1159 2956 
Q 1356 3278 1631 3431 
Q 1906 3584 2284 3584 
Q 2666 3584 2933 3390 
Q 3200 3197 3328 2828 
z
" transform="scale(0.015625)"/>
      <path id="DejaVuSans-64" d="M 2906 2969 
L 2906 4863 
L 3481 4863 
L 3481 0 
L 2906 0 
L 2906 525 
Q 2725 213 2448 61 
Q 2172 -91 1784 -91 
Q 1150 -91 751 415 
Q 353 922 353 1747 
Q 353 2572 751 3078 
Q 1150 3584 1784 3584 
Q 2172 3584 2448 3432 
Q 2725 3281 2906 2969 
z
M 947 1747 
Q 947 1113 1208 752 
Q 1469 391 1925 391 
Q 2381 391 2643 752 
Q 2906 1113 2906 1747 
Q 2906 2381 2643 2742 
Q 2381 3103 1925 3103 
Q 1469 3103 1208 2742 
Q 947 2381 947 1747 
z
" transform="scale(0.015625)"/>
      <path id="DejaVuSans-29" d="M 513 4856 
L 1013 4856 
Q 1481 4119 1714 3412 
Q 1947 2706 1947 2009 
Q 1947 1309 1714 600 
Q 1481 -109 1013 -844 
L 513 -844 
Q 928 -128 1133 580 
Q 1338 1288 1338 2009 
Q 1338 2731 1133 3434 
Q 928 4138 513 4856 
z
" transform="scale(0.015625)"/>
     </defs>
     <use xlink:href="#DejaVuSans-45"/>
     <use xlink:href="#DejaVuSans-6e" transform="translate(63.183594 0)"/>
     <use xlink:href="#DejaVuSans-74" transform="translate(126.5625 0)"/>
     <use xlink:href="#DejaVuSans-72" transform="translate(165.771484 0)"/>
     <use xlink:href="#DejaVuSans-6f" transform="translate(204.634766 0)"/>
     <use xlink:href="#DejaVuSans-70" transform="translate(265.816406 0)"/>
     <use xlink:href="#DejaVuSans-79" transform="translate(329.292969 0)"/>
     <use xlink:href="#DejaVuSans-20" transform="translate(388.472656 0)"/>
     <use xlink:href="#DejaVuSans-66" transform="translate(420.259766 0)"/>
     <use xlink:href="#DejaVuSans-6f" transform="translate(455.464844 0)"/>
     <use xlink:href="#DejaVuSans-72" transform="translate(516.646484 0)"/>
     <use xlink:href="#DejaVuSans-20" transform="translate(557.759766 0)"/>
     <use xlink:href="#DejaVuSans-76" transform="translate(589.546875 0)"/>
     <use xlink:href="#DejaVuSans-61" transform="translate(648.726562 0)"/>
     <use xlink:href="#DejaVuSans-72" transform="translate(710.005859 0)"/>
     <use xlink:href="#DejaVuSans-69" transform="translate(751.119141 0)"/>
     <use xlink:href="#DejaVuSans-6f" transform="translate(778.902344 0)"/>
     <use xlink:href="#DejaVuSans-75" transform="translate(840.083984 0)"/>
     <use xlink:href="#DejaVuSans-73" transform="translate(903.462891 0)"/>
     <use xlink:href="#DejaVuSans-20" transform="translate(955.5625 0)"/>
     <use xlink:href="#DejaVuSans-73" transform="translate(987.349609 0)"/>
     <use xlink:href="#DejaVuSans-69" transform="translate(1039.449219 0)"/>
     <use xlink:href="#DejaVuSans-67" transform="translate(1067.232422 0)"/>
     <use xlink:href="#DejaVuSans-6e" transform="translate(1130.708984 0)"/>
     <use xlink:href="#DejaVuSans-61" transform="translate(1194.087891 0)"/>
     <use xlink:href="#DejaVuSans-6c" transform="translate(1255.367188 0)"/>
     <use xlink:href="#DejaVuSans-20" transform="translate(1283.150391 0)"/>
     <use xlink:href="#DejaVuSans-6c" transform="translate(1314.9375 0)"/>
     <use xlink:href="#DejaVuSans-65" transform="translate(1342.720703 0)"/>
     <use xlink:href="#DejaVuSans-6e" transform="translate(1404.244141 0)"/>
     <use xlink:href="#DejaVuSans-67" transform="translate(1467.623047 0)"/>
     <use xlink:href="#DejaVuSans-74" transform="translate(1531.099609 0)"/>
     <use xlink:href="#DejaVuSans-68" transform="translate(1570.308594 0)"/>
     <use xlink:href="#DejaVuSans-20" transform="translate(1633.6875 0)"/>
     <use xlink:href="#DejaVuSans-28" transform="translate(1665.474609 0)"/>
     <use xlink:href="#DejaVuSans-7a" transform="translate(1704.488281 0)"/>
     <use xlink:href="#DejaVuSans-6f" transform="translate(1756.978516 0)"/>
     <use xlink:href="#DejaVuSans-6f" transform="translate(1818.160156 0)"/>
     <use xlink:href="#DejaVuSans-6d" transform="translate(1879.341797 0)"/>
     <use xlink:href="#DejaVuSans-65" transform="translate(1976.753906 0)"/>
     <use xlink:href="#DejaVuSans-64" transform="translate(2038.277344 0)"/>
     <use xlink:href="#DejaVuSans-29" transform="translate(2101.753906 0)"/>
    </g>
   </g>
   <g id="legend_1">
    <g id="patch_7">
     <path d="M 344.268438 122.862625 
L 407.72 122.862625 
Q 409.72 122.862625 409.72 120.862625 
L 409.72 48.472 
Q 409.72 46.472 407.72 46.472 
L 344.268438 46.472 
Q 342.268438 46.472 342.268438 48.472 
L 342.268438 120.862625 
Q 342.268438 122.862625 344.268438 122.862625 
z
" style="fill: #ffffff; opacity: 0.8; stroke: #cccccc; stroke-linejoin: miter"/>
    </g>
    <g id="line2d_17">
     <path d="M 346.268438 54.570438 
L 356.268438 54.570438 
L 366.268438 54.570438 
" style="fill: none; stroke: #1f77b4; stroke-width: 1.5; stroke-linecap: square"/>
    </g>
    <g id="text_15">
     <!-- peEn -->
     <g transform="translate(374.268438 58.070438) scale(0.1 -0.1)">
      <use xlink:href="#DejaVuSans-70"/>
      <use xlink:href="#DejaVuSans-65" transform="translate(63.476562 0)"/>
      <use xlink:href="#DejaVuSans-45" transform="translate(125 0)"/>
      <use xlink:href="#DejaVuSans-6e" transform="translate(188.183594 0)"/>
     </g>
    </g>
    <g id="line2d_18">
     <path d="M 346.268438 69.248563 
L 356.268438 69.248563 
L 366.268438 69.248563 
" style="fill: none; stroke: #ff7f0e; stroke-width: 1.5; stroke-linecap: square"/>
    </g>
    <g id="text_16">
     <!-- rpEn -->
     <g transform="translate(374.268438 72.748563) scale(0.1 -0.1)">
      <use xlink:href="#DejaVuSans-72"/>
      <use xlink:href="#DejaVuSans-70" transform="translate(41.113281 0)"/>
      <use xlink:href="#DejaVuSans-45" transform="translate(104.589844 0)"/>
      <use xlink:href="#DejaVuSans-6e" transform="translate(167.773438 0)"/>
     </g>
    </g>
    <g id="line2d_19">
     <path d="M 346.268438 83.926688 
L 356.268438 83.926688 
L 366.268438 83.926688 
" style="fill: none; stroke: #2ca02c; stroke-width: 1.5; stroke-linecap: square"/>
    </g>
    <g id="text_17">
     <!-- cPE -->
     <g transform="translate(374.268438 87.426688) scale(0.1 -0.1)">
      <defs>
       <path id="DejaVuSans-63" d="M 3122 3366 
L 3122 2828 
Q 2878 2963 2633 3030 
Q 2388 3097 2138 3097 
Q 1578 3097 1268 2742 
Q 959 2388 959 1747 
Q 959 1106 1268 751 
Q 1578 397 2138 397 
Q 2388 397 2633 464 
Q 2878 531 3122 666 
L 3122 134 
Q 2881 22 2623 -34 
Q 2366 -91 2075 -91 
Q 1284 -91 818 406 
Q 353 903 353 1747 
Q 353 2603 823 3093 
Q 1294 3584 2113 3584 
Q 2378 3584 2631 3529 
Q 2884 3475 3122 3366 
z
" transform="scale(0.015625)"/>
       <path id="DejaVuSans-50" d="M 1259 4147 
L 1259 2394 
L 2053 2394 
Q 2494 2394 2734 2622 
Q 2975 2850 2975 3272 
Q 2975 3691 2734 3919 
Q 2494 4147 2053 4147 
L 1259 4147 
z
M 628 4666 
L 2053 4666 
Q 2838 4666 3239 4311 
Q 3641 3956 3641 3272 
Q 3641 2581 3239 2228 
Q 2838 1875 2053 1875 
L 1259 1875 
L 1259 0 
L 628 0 
L 628 4666 
z
" transform="scale(0.015625)"/>
      </defs>
      <use xlink:href="#DejaVuSans-63"/>
      <use xlink:href="#DejaVuSans-50" transform="translate(54.980469 0)"/>
      <use xlink:href="#DejaVuSans-45" transform="translate(115.283203 0)"/>
     </g>
    </g>
    <g id="line2d_20">
     <path d="M 346.268438 98.604813 
L 356.268438 98.604813 
L 366.268438 98.604813 
" style="fill: none; stroke: #d62728; stroke-width: 1.5; stroke-linecap: square"/>
    </g>
    <g id="text_18">
     <!-- cRpEn -->
     <g transform="translate(374.268438 102.104813) scale(0.1 -0.1)">
      <defs>
       <path id="DejaVuSans-52" d="M 2841 2188 
Q 3044 2119 3236 1894 
Q 3428 1669 3622 1275 
L 4263 0 
L 3584 0 
L 2988 1197 
Q 2756 1666 2539 1819 
Q 2322 1972 1947 1972 
L 1259 1972 
L 1259 0 
L 628 0 
L 628 4666 
L 2053 4666 
Q 2853 4666 3247 4331 
Q 3641 3997 3641 3322 
Q 3641 2881 3436 2590 
Q 3231 2300 2841 2188 
z
M 1259 4147 
L 1259 2491 
L 2053 2491 
Q 2509 2491 2742 2702 
Q 2975 2913 2975 3322 
Q 2975 3731 2742 3939 
Q 2509 4147 2053 4147 
L 1259 4147 
z
" transform="scale(0.015625)"/>
      </defs>
      <use xlink:href="#DejaVuSans-63"/>
      <use xlink:href="#DejaVuSans-52" transform="translate(54.980469 0)"/>
      <use xlink:href="#DejaVuSans-70" transform="translate(124.462891 0)"/>
      <use xlink:href="#DejaVuSans-45" transform="translate(187.939453 0)"/>
      <use xlink:href="#DejaVuSans-6e" transform="translate(251.123047 0)"/>
     </g>
    </g>
    <g id="line2d_21">
     <path d="M 346.268438 113.282938 
L 356.268438 113.282938 
L 366.268438 113.282938 
" style="fill: none; stroke: #9467bd; stroke-width: 1.5; stroke-linecap: square"/>
    </g>
    <g id="text_19">
     <!-- bbEn -->
     <g transform="translate(374.268438 116.782938) scale(0.1 -0.1)">
      <defs>
       <path id="DejaVuSans-62" d="M 3116 1747 
Q 3116 2381 2855 2742 
Q 2594 3103 2138 3103 
Q 1681 3103 1420 2742 
Q 1159 2381 1159 1747 
Q 1159 1113 1420 752 
Q 1681 391 2138 391 
Q 2594 391 2855 752 
Q 3116 1113 3116 1747 
z
M 1159 2969 
Q 1341 3281 1617 3432 
Q 1894 3584 2278 3584 
Q 2916 3584 3314 3078 
Q 3713 2572 3713 1747 
Q 3713 922 3314 415 
Q 2916 -91 2278 -91 
Q 1894 -91 1617 61 
Q 1341 213 1159 525 
L 1159 0 
L 581 0 
L 581 4863 
L 1159 4863 
L 1159 2969 
z
" transform="scale(0.015625)"/>
      </defs>
      <use xlink:href="#DejaVuSans-62"/>
      <use xlink:href="#DejaVuSans-62" transform="translate(63.476562 0)"/>
      <use xlink:href="#DejaVuSans-45" transform="translate(126.953125 0)"/>
      <use xlink:href="#DejaVuSans-6e" transform="translate(190.136719 0)"/>
     </g>
    </g>
   </g>
  </g>
 </g>
 <defs>
  <clipPath id="p6e20769ba7">
   <rect x="57.6" y="41.472" width="357.12" height="266.112"/>
  </clipPath>
 </defs>
</svg>
